<?xml version="1.0" standalone="no"?>
<!DOCTYPE svg PUBLIC "-//W3C//DTD SVG 1.1//EN" "http://www.w3.org/Graphics/SVG/1.1/DTD/svg11.dtd" >
<svg xmlns="http://www.w3.org/2000/svg">
<defs>
  <font id="iconfont" horiz-adv-x="24">
    <font-face font-family="iconfont"
      units-per-em="24" ascent="24"
      descent="0" />
    <missing-glyph horiz-adv-x="0" />
    <glyph glyph-name="bank-fill"
      unicode="&#xE001;"
      horiz-adv-x="24" d="M2 4H22V2H2V4zM4 12H6V5H4V12zM9 12H11V5H9V12zM13 12H15V5H13V12zM18 12H20V5H18V12zM2 17L12 22L22 17V13H2V17zM12 16A1 1 0 1 1 12 18A1 1 0 0 1 12 16z" />
    <glyph glyph-name="bank-line"
      unicode="&#xE002;"
      horiz-adv-x="24" d="M2 4H22V2H2V4zM4 12H6V5H4V12zM9 12H11V5H9V12zM13 12H15V5H13V12zM18 12H20V5H18V12zM2 17L12 22L22 17V13H2V17zM4 15.764V15H20V15.764L12 19.764L4 15.764zM12 16A1 1 0 1 0 12 18A1 1 0 0 0 12 16z" />
    <glyph glyph-name="building-2-fill"
      unicode="&#xE003;"
      horiz-adv-x="24" d="M12 5H14V18L20.394 15.26A1 1 0 0 0 21 14.34V5H23V3H1V5H3V18.35A1 1 0 0 0 3.594 19.264L11.297 22.688A0.5 0.5 0 0 0 12 22.23V5z" />
    <glyph glyph-name="building-2-line"
      unicode="&#xE004;"
      horiz-adv-x="24" d="M3 5V18.3A1 1 0 0 0 3.658 19.24L13.329 22.756A0.5 0.5 0 0 0 14 22.286V17.333L20.316 15.228A1 1 0 0 0 21 14.279V5H23V3H1V5H3zM5 5H12V20.145L5 17.599V5zM19 5V13.558L14 15.225V5H19z" />
    <glyph glyph-name="building-3-fill"
      unicode="&#xE005;"
      horiz-adv-x="24" d="M10 13.889V23L21 17V3H3V17z" />
    <glyph glyph-name="building-3-line"
      unicode="&#xE006;"
      horiz-adv-x="24" d="M10 13.889V23L21 17V3H3V17L10 13.889zM12 19.631V10.811L5 13.922V5H19V15.813L12 19.63z" />
    <glyph glyph-name="building-4-fill"
      unicode="&#xE007;"
      horiz-adv-x="24" d="M21 4H23V2H1V4H3V21A1 1 0 0 0 4 22H20A1 1 0 0 0 21 21V4zM8 13V11H11V13H8zM8 17V15H11V17H8zM8 9V7H11V9H8zM13 9V7H16V9H13zM13 13V11H16V13H13zM13 17V15H16V17H13z" />
    <glyph glyph-name="building-4-line"
      unicode="&#xE008;"
      horiz-adv-x="24" d="M21 4H23V2H1V4H3V21A1 1 0 0 0 4 22H20A1 1 0 0 0 21 21V4zM19 4V20H5V4H19zM8 13H11V11H8V13zM8 17H11V15H8V17zM8 9H11V7H8V9zM13 9H16V7H13V9zM13 13H16V11H13V13zM13 17H16V15H13V17z" />
    <glyph glyph-name="building-fill"
      unicode="&#xE009;"
      horiz-adv-x="24" d="M21 5H23V3H1V5H3V20A1 1 0 0 0 4 21H14A1 1 0 0 0 15 20V5H17V15H20A1 1 0 0 0 21 14V5zM7 13V11H11V13H7zM7 17V15H11V17H7z" />
    <glyph glyph-name="building-line"
      unicode="&#xE00A;"
      horiz-adv-x="24" d="M21 5H23V3H1V5H3V20A1 1 0 0 0 4 21H14A1 1 0 0 0 15 20V5H19V13H17V15H20A1 1 0 0 0 21 14V5zM5 19V5H13V19H5zM7 13H11V11H7V13zM7 17H11V15H7V17z" />
    <glyph glyph-name="community-fill"
      unicode="&#xE00B;"
      horiz-adv-x="24" d="M9 5H12V11.058L8 14.546L4 11.058V5H7V9H9V5zM21 3H3A1 1 0 0 0 2 4V11.513A1 1 0 0 0 2.343 12.267L6 15.456V20A1 1 0 0 0 7 21H21A1 1 0 0 0 22 20V4A1 1 0 0 0 21 3zM16 13V11H18V13H16zM16 9V7H18V9H16zM16 17V15H18V17H16zM12 17V15H14V17H12z" />
    <glyph glyph-name="community-line"
      unicode="&#xE00C;"
      horiz-adv-x="24" d="M21 3H3A1 1 0 0 0 2 4V11.513A1 1 0 0 0 2.343 12.267L6 15.456V20A1 1 0 0 0 7 21H21A1 1 0 0 0 22 20V4A1 1 0 0 0 21 3zM9 5H12V11.058L8 14.546L4 11.058V5H7V9H9V5zM14 5H20V19H8V16.873C8.234 16.873 8.469 16.791 8.657 16.626L13.657 12.267A1 1 0 0 0 14 11.513V5zM16 13H18V11H16V13zM16 9H18V7H16V9zM16 17H18V15H16V17zM12 17H14V15H12V17z" />
    <glyph glyph-name="government-fill"
      unicode="&#xE00D;"
      horiz-adv-x="24" d="M2 5V16H1V18H4V20A1 1 0 0 0 5 21H19A1 1 0 0 0 20 20V18H23V16H22V5H23V3H1V5H2zM13 5V12H11V5H13zM8 5V12H6V5H8zM18 5V12H16V5H18zM6 19V18H18V19H6z" />
    <glyph glyph-name="government-line"
      unicode="&#xE00E;"
      horiz-adv-x="24" d="M20 18H23V16H22V5H23V3H1V5H2V16H1V18H4V20A1 1 0 0 0 5 21H19A1 1 0 0 0 20 20V18zM20 16H4V5H7V12H9V5H11V12H13V5H15V12H17V5H20V16zM6 19V18H18V19H6z" />
    <glyph glyph-name="home-2-fill"
      unicode="&#xE00F;"
      horiz-adv-x="24" d="M20 4A1 1 0 0 0 19 3H5A1 1 0 0 0 4 4V13H1L11.327 22.388A1 1 0 0 0 12.673 22.388L23 13H20V4z" />
    <glyph glyph-name="home-2-line"
      unicode="&#xE010;"
      horiz-adv-x="24" d="M19 3H5A1 1 0 0 0 4 4V13H1L11.327 22.388A1 1 0 0 0 12.673 22.388L23 13H20V4A1 1 0 0 0 19 3zM6 5H18V14.843L12 20.297L6 14.843V5z" />
    <glyph glyph-name="home-3-fill"
      unicode="&#xE011;"
      horiz-adv-x="24" d="M20 4A1 1 0 0 0 19 3H5A1 1 0 0 0 4 4V13H1L11.327 22.388A1 1 0 0 0 12.673 22.388L23 13H20V4zM8 9V7H16V9H8z" />
    <glyph glyph-name="home-3-line"
      unicode="&#xE012;"
      horiz-adv-x="24" d="M19 3H5A1 1 0 0 0 4 4V13H1L11.327 22.388A1 1 0 0 0 12.673 22.388L23 13H20V4A1 1 0 0 0 19 3zM6 5H18V14.843L12 20.297L6 14.843V5zM8 9H16V7H8V9z" />
    <glyph glyph-name="home-4-fill"
      unicode="&#xE013;"
      horiz-adv-x="24" d="M20 4A1 1 0 0 0 19 3H5A1 1 0 0 0 4 4V13H1L11.327 22.388A1 1 0 0 0 12.673 22.388L23 13H20V4zM11 11V5H13V11H11z" />
    <glyph glyph-name="home-4-line"
      unicode="&#xE014;"
      horiz-adv-x="24" d="M19 3H5A1 1 0 0 0 4 4V13H1L11.327 22.388A1 1 0 0 0 12.673 22.388L23 13H20V4A1 1 0 0 0 19 3zM13 5H18V14.843L12 20.297L6 14.843V5H11V11H13V5z" />
    <glyph glyph-name="home-5-fill"
      unicode="&#xE015;"
      horiz-adv-x="24" d="M21 4A1 1 0 0 0 20 3H4A1 1 0 0 0 3 4V14.51A1 1 0 0 0 3.386 15.3L11.386 21.522A1 1 0 0 0 12.614 21.522L20.614 15.3A1 1 0 0 0 21 14.51V4zM11 11V5H13V11H11z" />
    <glyph glyph-name="home-5-line"
      unicode="&#xE016;"
      horiz-adv-x="24" d="M13 5H19V14.022L12 19.466L5 14.022V5H11V11H13V5zM21 4A1 1 0 0 0 20 3H4A1 1 0 0 0 3 4V14.51A1 1 0 0 0 3.386 15.3L11.386 21.522A1 1 0 0 0 12.614 21.522L20.614 15.3A1 1 0 0 0 21 14.51V4z" />
    <glyph glyph-name="home-6-fill"
      unicode="&#xE017;"
      horiz-adv-x="24" d="M21 4A1 1 0 0 0 20 3H4A1 1 0 0 0 3 4V14.51A1 1 0 0 0 3.386 15.3L11.386 21.522A1 1 0 0 0 12.614 21.522L20.614 15.3A1 1 0 0 0 21 14.51V4zM7 9V7H17V9H7z" />
    <glyph glyph-name="home-6-line"
      unicode="&#xE018;"
      horiz-adv-x="24" d="M21 4A1 1 0 0 0 20 3H4A1 1 0 0 0 3 4V14.51A1 1 0 0 0 3.386 15.3L11.386 21.522A1 1 0 0 0 12.614 21.522L20.614 15.3A1 1 0 0 0 21 14.51V4zM19 5V14.022L12 19.466L5 14.022V5H19zM7 9H17V7H7V9z" />
    <glyph glyph-name="home-7-fill"
      unicode="&#xE019;"
      horiz-adv-x="24" d="M19 4A1 1 0 0 0 18 3H4A1 1 0 0 0 3 4V13H0L10.327 22.388A1 1 0 0 0 11.673 22.388L22 13H19V4zM11 9A2.5 2.5 0 1 1 11 14A2.5 2.5 0 0 1 11 9z" />
    <glyph glyph-name="home-7-line"
      unicode="&#xE01A;"
      horiz-adv-x="24" d="M19 3H5A1 1 0 0 0 4 4V13H1L11.327 22.388A1 1 0 0 0 12.673 22.388L23 13H20V4A1 1 0 0 0 19 3zM6 5H18V14.843L12 20.297L6 14.843V5zM12 9A2.5 2.5 0 1 0 12 14A2.5 2.5 0 0 0 12 9z" />
    <glyph glyph-name="home-8-fill"
      unicode="&#xE01B;"
      horiz-adv-x="24" d="M20 4A1 1 0 0 0 19 3H5A1 1 0 0 0 4 4V13H1L11.327 22.388A1 1 0 0 0 12.673 22.388L23 13H20V4zM9 14V8H15V14H9zM11 12H13V10H11V12z" />
    <glyph glyph-name="home-8-line"
      unicode="&#xE01C;"
      horiz-adv-x="24" d="M19 3H5A1 1 0 0 0 4 4V13H1L11.327 22.388A1 1 0 0 0 12.673 22.388L23 13H20V4A1 1 0 0 0 19 3zM6 5H18V14.843L12 20.297L6 14.843V5zM9 14H15V8H9V14zM11 12V10H13V12H11z" />
    <glyph glyph-name="home-fill"
      unicode="&#xE01D;"
      horiz-adv-x="24" d="M21 4A1 1 0 0 0 20 3H4A1 1 0 0 0 3 4V14.51A1 1 0 0 0 3.386 15.3L11.386 21.522A1 1 0 0 0 12.614 21.522L20.614 15.3A1 1 0 0 0 21 14.51V4z" />
    <glyph glyph-name="home-gear-fill"
      unicode="&#xE01E;"
      horiz-adv-x="24" d="M20 4A1 1 0 0 0 19 3H5A1 1 0 0 0 4 4V13H1L11.327 22.388A1 1 0 0 0 12.673 22.388L23 13H20V4zM8.592 10.192L7.601 9.62L8.601 7.887L9.594 8.46A3.5 3.5 0 0 1 10.999 7.649V6.504H13.001V7.65A3.5 3.5 0 0 1 14.406 8.46L15.398 7.888L16.4 9.62L15.409 10.192A3.504 3.504 0 0 1 15.409 11.812L16.4 12.385L15.4 14.118L14.407 13.545A3.5 3.5 0 0 1 13 14.355V15.5H10.998V14.356A3.5 3.5 0 0 1 9.593 13.545L8.601 14.118L7.6 12.384L8.591 11.812A3.504 3.504 0 0 1 8.591 10.192zM12 9.502A1.5 1.5 0 1 0 11.998 12.503A1.5 1.5 0 0 0 12 9.503z" />
    <glyph glyph-name="home-gear-line"
      unicode="&#xE01F;"
      horiz-adv-x="24" d="M19 3H5A1 1 0 0 0 4 4V13H1L11.327 22.388A1 1 0 0 0 12.673 22.388L23 13H20V4A1 1 0 0 0 19 3zM6 5H18V14.843L12 20.297L6 14.843V5zM8.591 10.191A3.508 3.508 0 0 0 8.591 11.813L7.6 12.385L8.6 14.117L9.591 13.544A3.4950000000000006 3.4950000000000006 0 0 0 10.995 14.356V15.5H12.995V14.356C13.527 14.197 14.005 13.916 14.399 13.544L15.39 14.117L16.39 12.386L15.399 11.813A3.508 3.508 0 0 0 15.399 10.191L16.39 9.619L15.39 7.888L14.399 8.46A3.4950000000000006 3.4950000000000006 0 0 0 12.995 7.649V6.504H10.995V7.65A3.4950000000000006 3.4950000000000006 0 0 0 9.591 8.461L8.6 7.889L7.6 9.619L8.591 10.192zM11.995 9.503A1.5 1.5 0 1 1 11.995 12.501A1.5 1.5 0 0 1 11.995 9.503z" />
    <glyph glyph-name="home-heart-fill"
      unicode="&#xE020;"
      horiz-adv-x="24" d="M20 4A1 1 0 0 0 19 3H5A1 1 0 0 0 4 4V13H1L11.327 22.388A1 1 0 0 0 12.673 22.388L23 13H20V4zM12 7L15.359 10.359A2.25 2.25 0 1 1 12.177 13.541L12 13.364L11.823 13.541A2.25 2.25 0 1 1 8.641 10.359L12 7z" />
    <glyph glyph-name="home-heart-line"
      unicode="&#xE021;"
      horiz-adv-x="24" d="M20 4A1 1 0 0 0 19 3H5A1 1 0 0 0 4 4V13H1L11.327 22.388A1 1 0 0 0 12.673 22.388L23 13H20V4zM18 5V14.843L12 20.297L6 14.843V5H18zM12 7L8.641 10.359A2.25 2.25 0 1 0 11.823 13.541L12 13.364L12.177 13.541A2.25 2.25 0 1 0 15.359 10.359L12 7z" />
    <glyph glyph-name="home-line"
      unicode="&#xE022;"
      horiz-adv-x="24" d="M21 4A1 1 0 0 0 20 3H4A1 1 0 0 0 3 4V14.51A1 1 0 0 0 3.386 15.3L11.386 21.522A1 1 0 0 0 12.614 21.522L20.614 15.3A1 1 0 0 0 21 14.51V4zM19 5V14.022L12 19.466L5 14.022V5H19z" />
    <glyph glyph-name="home-smile-2-fill"
      unicode="&#xE023;"
      horiz-adv-x="24" d="M21 4A1 1 0 0 0 20 3H4A1 1 0 0 0 3 4V14.686A1 1 0 0 0 3.38 15.471L11.38 21.782A1 1 0 0 0 12.62 21.782L20.62 15.472A1 1 0 0 0 21 14.686V4zM7 12A5 5 0 0 1 17 12H15A3 3 0 0 0 9 12H7z" />
    <glyph glyph-name="home-smile-2-line"
      unicode="&#xE024;"
      horiz-adv-x="24" d="M19 5V14.201L12 19.723L5 14.201V5H19zM21 4A1 1 0 0 0 20 3H4A1 1 0 0 0 3 4V14.686A1 1 0 0 0 3.38 15.471L11.38 21.782A1 1 0 0 0 12.62 21.782L20.62 15.472A1 1 0 0 0 21 14.686V4zM7 12H9A3 3 0 0 1 15 12H17A5 5 0 0 0 7 12z" />
    <glyph glyph-name="home-smile-fill"
      unicode="&#xE025;"
      horiz-adv-x="24" d="M20 4A1 1 0 0 0 19 3H5A1 1 0 0 0 4 4V13H1L11.327 22.388A1 1 0 0 0 12.673 22.388L23 13H20V4zM7.5 11A4.5 4.5 0 1 1 16.5 11H14.5A2.5 2.5 0 1 0 9.5 11H7.5z" />
    <glyph glyph-name="home-smile-line"
      unicode="&#xE026;"
      horiz-adv-x="24" d="M6 5H18V14.843L12 20.297L6 14.843V5zM19 3H5A1 1 0 0 0 4 4V13H1L11.327 22.388A1 1 0 0 0 12.673 22.388L23 13H20V4A1 1 0 0 0 19 3zM7.5 11H9.5A2.5 2.5 0 1 1 14.5 11H16.5A4.5 4.5 0 1 0 7.5 11z" />
    <glyph glyph-name="home-wifi-fill"
      unicode="&#xE027;"
      horiz-adv-x="24" d="M20 4A1 1 0 0 0 19 3H5A1 1 0 0 0 4 4V13H1L11.327 22.388A1 1 0 0 0 12.673 22.388L23 13H20V4zM7 13V11A5 5 0 0 0 12 6H14A7 7 0 0 1 7 13zM7 9V6H10A3 3 0 0 1 7 9z" />
    <glyph glyph-name="home-wifi-line"
      unicode="&#xE028;"
      horiz-adv-x="24" d="M6 5H18V14.843L12 20.297L6 14.843V5zM19 3H5A1 1 0 0 0 4 4V13H1L11.327 22.388A1 1 0 0 0 12.673 22.388L23 13H20V4A1 1 0 0 0 19 3zM8 14A7 7 0 0 0 15 7H13A5 5 0 0 1 8 12V14zM8 10A3 3 0 0 0 11 7H8V10z" />
    <glyph glyph-name="hospital-fill"
      unicode="&#xE029;"
      horiz-adv-x="24" d="M21 4H23V2H1V4H3V21A1 1 0 0 0 4 22H20A1 1 0 0 0 21 21V4zM11 16H9V14H11V12H13V14H15V16H13V18H11V16zM14 4H16V10H8V4H10V8H14V4z" />
    <glyph glyph-name="hospital-line"
      unicode="&#xE02A;"
      horiz-adv-x="24" d="M8 4V10H16V4H19V20H5V4H8zM10 4H14V8H10V4zM21 4H23V2H1V4H3V21A1 1 0 0 0 4 22H20A1 1 0 0 0 21 21V4zM11 16V18H13V16H15V14H13V12H11V14H9V16H11z" />
    <glyph glyph-name="hotel-fill"
      unicode="&#xE02B;"
      horiz-adv-x="24" d="M17 5H19V13H13V5H15V11H17V5zM3 5V20A1 1 0 0 0 4 21H18A1 1 0 0 0 19 20V15H21V5H22V3H2V5H3zM7 13V11H9V13H7zM7 9V7H9V9H7zM7 17V15H9V17H7z" />
    <glyph glyph-name="hotel-line"
      unicode="&#xE02C;"
      horiz-adv-x="24" d="M22 3H2V5H3V20A1 1 0 0 0 4 21H18A1 1 0 0 0 19 20V15H21V5H22V3zM17 5H19V13H13V5H15V11H17V5zM17 15V19H5V5H11V15H17zM7 13H9V11H7V13zM7 9H9V7H7V9zM7 17H9V15H7V17z" />
    <glyph glyph-name="store-2-fill"
      unicode="&#xE02D;"
      horiz-adv-x="24" d="M22 4V2H2V4H3V10.758A4.496 4.496 0 0 0 1 14.5C1 15.327 1.224 16.124 1.633 16.803L4.345 21.5A1 1 0 0 0 5.211 22H18.79A1 1 0 0 0 19.656 21.5L22.358 16.818A4.496 4.496 0 0 0 21 10.758V4H22zM5.789 20L3.356 15.787A2.5 2.5 0 0 1 7.822 13.571C8.157 14.408 9.342 14.408 9.678 13.571A2.5 2.5 0 0 1 14.322 13.571C14.657 14.408 15.842 14.408 16.178 13.571A2.5 2.5 0 1 1 20.635 15.803L18.21 20H5.79z" />
    <glyph glyph-name="store-2-line"
      unicode="&#xE02E;"
      horiz-adv-x="24" d="M21 10.758V4H22V2H2V4H3V10.758A4.496 4.496 0 0 0 1 14.5C1 15.327 1.224 16.124 1.633 16.803L4.345 21.5A1 1 0 0 0 5.211 22H18.79A1 1 0 0 0 19.656 21.5L22.358 16.818A4.496 4.496 0 0 0 21 10.758zM19 10.028A4.496 4.496 0 0 0 15.25 11.388A4.496 4.496 0 0 0 12 9.999A4.496 4.496 0 0 0 8.75 11.386A4.496 4.496 0 0 0 5 10.027V4H19V10.027zM5.789 20L3.356 15.787A2.5 2.5 0 0 1 7.822 13.571C8.157 14.408 9.342 14.408 9.678 13.571A2.5 2.5 0 0 1 14.322 13.571C14.657 14.408 15.842 14.408 16.178 13.571A2.5 2.5 0 1 1 20.635 15.803L18.21 20H5.79z" />
    <glyph glyph-name="store-3-fill"
      unicode="&#xE02F;"
      horiz-adv-x="24" d="M21 11V4A1 1 0 0 0 20 3H4A1 1 0 0 0 3 4V11H2V13L3 18H21L22 13V11H21zM5 11V5H19V11H5zM6 10H14V7H6V10zM3 21H21V19H3V21z" />
    <glyph glyph-name="store-3-line"
      unicode="&#xE030;"
      horiz-adv-x="24" d="M21 11V4A1 1 0 0 0 20 3H4A1 1 0 0 0 3 4V11H2V13L3 18H21L22 13V11H21zM5 11V5H19V11H5zM4.04 13H19.96L19.36 16H4.64L4.04 13zM6 10H14V7H6V10zM3 21H21V19H3V21z" />
    <glyph glyph-name="store-fill"
      unicode="&#xE031;"
      horiz-adv-x="24" d="M21 12.354V3A1 1 0 0 0 20 2H4A1 1 0 0 0 3 3V12.354A3.985 3.985 0 0 0 2 15V21A1 1 0 0 0 3 22H21A1 1 0 0 0 22 21V15C22 13.986 21.622 13.06 21 12.354zM14 15A1 1 0 0 0 16 15A2 2 0 1 1 20 15V20H4V15A2 2 0 1 1 8 15A1 1 0 1 0 10 15A2 2 0 1 1 14 15z" />
    <glyph glyph-name="store-line"
      unicode="&#xE032;"
      horiz-adv-x="24" d="M21 12.354V3A1 1 0 0 0 20 2H4A1 1 0 0 0 3 3V12.354A3.985 3.985 0 0 0 2 15V21A1 1 0 0 0 3 22H21A1 1 0 0 0 22 21V15C22 13.986 21.622 13.06 21 12.354zM19 11.126A4.007 4.007 0 0 0 15 12.354A3.99 3.99 0 0 0 12 11A3.99 3.99 0 0 0 9 12.354A3.99 3.99 0 0 0 5 11.126V4H19V11.126zM14 15A1 1 0 0 0 16 15A2 2 0 1 1 20 15V20H4V15A2 2 0 1 1 8 15A1 1 0 1 0 10 15A2 2 0 1 1 14 15z" />
    <glyph glyph-name="chat-1-fill"
      unicode="&#xE033;"
      horiz-adv-x="24" d="M10 21H14A8 8 0 1 0 14 5V1.5C9 3.5 2 6.5 2 13A8 8 0 0 0 10 21z" />
    <glyph glyph-name="chat-1-line"
      unicode="&#xE034;"
      horiz-adv-x="24" d="M10 21H14A8 8 0 1 0 14 5V1.5C9 3.5 2 6.5 2 13A8 8 0 0 0 10 21zM12 7H14A6 6 0 1 1 14 19H10A6 6 0 0 1 4 13C4 9.39 6.462 7.034 12 4.52V7z" />
    <glyph glyph-name="chat-2-fill"
      unicode="&#xE035;"
      horiz-adv-x="24" d="M14.45 5L12 1.5L9.55 5H3A1 1 0 0 0 2 6V20A1 1 0 0 0 3 21H21A1 1 0 0 0 22 20V6A1 1 0 0 0 21 5H14.45z" />
    <glyph glyph-name="chat-2-line"
      unicode="&#xE036;"
      horiz-adv-x="24" d="M14.45 5L12 1.5L9.55 5H3A1 1 0 0 0 2 6V20A1 1 0 0 0 3 21H21A1 1 0 0 0 22 20V6A1 1 0 0 0 21 5H14.45zM13.409 7H20V19H4V7H10.591L12 4.988L13.409 7z" />
    <glyph glyph-name="chat-3-fill"
      unicode="&#xE037;"
      horiz-adv-x="24" d="M7.291 3.176L2 2L3.176 7.291A9.956 9.956 0 0 0 2 12C2 17.523 6.477 22 12 22S22 17.523 22 12S17.523 2 12 2A9.956 9.956 0 0 0 7.291 3.176z" />
    <glyph glyph-name="chat-3-line"
      unicode="&#xE038;"
      horiz-adv-x="24" d="M7.291 3.176L2 2L3.176 7.291A9.956 9.956 0 0 0 2 12C2 17.523 6.477 22 12 22S22 17.523 22 12S17.523 2 12 2A9.956 9.956 0 0 0 7.291 3.176zM7.581 5.289L8.234 4.939A7.955 7.955 0 0 1 12 4A8 8 0 1 1 4 12C4 10.666 4.325 9.382 4.94 8.234L5.289 7.581L4.634 4.634L7.581 5.289z" />
    <glyph glyph-name="chat-4-fill"
      unicode="&#xE039;"
      horiz-adv-x="24" d="M6.455 5L2 1.5V20A1 1 0 0 0 3 21H21A1 1 0 0 0 22 20V6A1 1 0 0 0 21 5H6.455z" />
    <glyph glyph-name="chat-4-line"
      unicode="&#xE03A;"
      horiz-adv-x="24" d="M5.763 7H20V19H4V5.615L5.763 7zM6.455 5L2 1.5V20A1 1 0 0 0 3 21H21A1 1 0 0 0 22 20V6A1 1 0 0 0 21 5H6.455z" />
    <glyph glyph-name="chat-check-fill"
      unicode="&#xE03B;"
      horiz-adv-x="24" d="M6.455 5L2 1.5V20A1 1 0 0 0 3 21H21A1 1 0 0 0 22 20V6A1 1 0 0 0 21 5H6.455zM11.293 11.879L8.818 14.354L7.404 12.939L11.293 9.05L16.95 14.707L15.536 16.121L11.293 11.879z" />
    <glyph glyph-name="chat-check-line"
      unicode="&#xE03C;"
      horiz-adv-x="24" d="M6.455 5L2 1.5V20A1 1 0 0 0 3 21H21A1 1 0 0 0 22 20V6A1 1 0 0 0 21 5H6.455zM5.763 7H20V19H4V5.615L5.763 7zM11.293 11.879L15.536 16.121L16.95 14.707L11.293 9.05L7.403 12.94L8.818 14.354L11.293 11.879z" />
    <glyph glyph-name="chat-delete-fill"
      unicode="&#xE03D;"
      horiz-adv-x="24" d="M6.455 5L2 1.5V20A1 1 0 0 0 3 21H21A1 1 0 0 0 22 20V6A1 1 0 0 0 21 5H6.455zM13.415 13L15.889 15.475L14.475 16.889L12 14.414L9.525 16.89L8.111 15.475L10.586 13L8.11 10.525L9.524 9.111L12 11.586L14.475 9.111L15.889 10.525L13.414 13z" />
    <glyph glyph-name="chat-delete-line"
      unicode="&#xE03E;"
      horiz-adv-x="24" d="M6.455 5L2 1.5V20A1 1 0 0 0 3 21H21A1 1 0 0 0 22 20V6A1 1 0 0 0 21 5H6.455zM4 5.615L5.763 7H20V19H4V5.615zM13.414 13L15.889 10.525L14.475 9.111L12 11.586L9.525 9.11L8.111 10.524L10.586 13L8.11 15.475L9.524 16.889L12 14.414L14.475 16.889L15.889 15.475L13.414 13z" />
    <glyph glyph-name="chat-download-fill"
      unicode="&#xE03F;"
      horiz-adv-x="24" d="M6.455 5L2 1.5V20A1 1 0 0 0 3 21H21A1 1 0 0 0 22 20V6A1 1 0 0 0 21 5H6.455zM13 13V17H11V13H8L12 9L16 13H13z" />
    <glyph glyph-name="chat-download-line"
      unicode="&#xE040;"
      horiz-adv-x="24" d="M6.455 5L2 1.5V20A1 1 0 0 0 3 21H21A1 1 0 0 0 22 20V6A1 1 0 0 0 21 5H6.455zM4 5.615L5.763 7H20V19H4V5.615zM13 13H16L12 9L8 13H11V17H13V13z" />
    <glyph glyph-name="chat-forward-fill"
      unicode="&#xE041;"
      horiz-adv-x="24" d="M6.455 5L2 1.5V20A1 1 0 0 0 3 21H21A1 1 0 0 0 22 20V6A1 1 0 0 0 21 5H6.455zM12 14H8V12H12V9L16 13L12 17V14z" />
    <glyph glyph-name="chat-forward-line"
      unicode="&#xE042;"
      horiz-adv-x="24" d="M6.455 5L2 1.5V20A1 1 0 0 0 3 21H21A1 1 0 0 0 22 20V6A1 1 0 0 0 21 5H6.455zM4 5.615L5.763 7H20V19H4V5.615zM12 14V17L16 13L12 9V12H8V14H12z" />
    <glyph glyph-name="chat-heart-fill"
      unicode="&#xE043;"
      horiz-adv-x="24" d="M6.455 5L2 1.5V20A1 1 0 0 0 3 21H21A1 1 0 0 0 22 20V6A1 1 0 0 0 21 5H6.455zM12.018 9.3L15.377 12.659A2.25 2.25 0 0 1 12.195 15.841L12.018 15.664L11.841 15.841A2.25 2.25 0 0 1 8.659 12.659L12.018 9.3z" />
    <glyph glyph-name="chat-heart-line"
      unicode="&#xE044;"
      horiz-adv-x="24" d="M6.455 5L2 1.5V20A1 1 0 0 0 3 21H21A1 1 0 0 0 22 20V6A1 1 0 0 0 21 5H6.455zM4 5.615L5.763 7H20V19H4V5.615zM12.018 9.3L8.659 12.66A2.25 2.25 0 0 0 11.841 15.842L12.018 15.665L12.195 15.842A2.25 2.25 0 0 0 15.377 12.66L12.017 9.301z" />
    <glyph glyph-name="chat-new-fill"
      unicode="&#xE045;"
      horiz-adv-x="24" d="M6.455 5L2 1.5V20A1 1 0 0 0 3 21H21A1 1 0 0 0 22 20V6A1 1 0 0 0 21 5H6.455zM11 14H8V12H11V9H13V12H16V14H13V17H11V14z" />
    <glyph glyph-name="chat-new-line"
      unicode="&#xE046;"
      horiz-adv-x="24" d="M14 21V19H4V5.615L5.763 7H20V14H22V6A1 1 0 0 0 21 5H6.455L2 1.5V20A1 1 0 0 0 3 21H14zM19 21V24H21V21H24V19H21V16H19V19H16V21H19z" />
    <glyph glyph-name="chat-settings-fill"
      unicode="&#xE047;"
      horiz-adv-x="24" d="M6.455 5L2 1.5V20A1 1 0 0 0 3 21H21A1 1 0 0 0 22 20V6A1 1 0 0 0 21 5H6.455zM8.145 11.929L7.17 11.366L8.17 9.634L9.146 10.197C9.647 9.687 10.286 9.31 11 9.126V8H13V9.126A3.9959999999999996 3.9959999999999996 0 0 1 14.854 10.197L15.83 9.634L16.83 11.366L15.855 11.929A4.004 4.004 0 0 1 15.855 14.071L16.83 14.634L15.83 16.366L14.854 15.803A3.9959999999999996 3.9959999999999996 0 0 1 13 16.874V18H11V16.874A3.9959999999999996 3.9959999999999996 0 0 1 9.146 15.803L8.17 16.366L7.17 14.634L8.145 14.071A4.004 4.004 0 0 1 8.145 11.929zM12 11A2 2 0 1 0 12 15A2 2 0 0 0 12 11z" />
    <glyph glyph-name="chat-settings-line"
      unicode="&#xE048;"
      horiz-adv-x="24" d="M22 12H20V19H4V5.615L5.763 7H12V5H6.455L2 1.5V20A1 1 0 0 0 3 21H21A1 1 0 0 0 22 20V12zM14.145 4.929A4.004 4.004 0 0 0 14.145 7.071L13.17 7.634L14.17 9.366L15.146 8.803A3.9959999999999996 3.9959999999999996 0 0 0 17 9.874V11H19V9.874C19.715 9.69 20.353 9.314 20.854 8.803L21.83 9.366L22.83 7.634L21.855 7.071A4.004 4.004 0 0 0 21.855 4.929L22.83 4.366L21.83 2.634L20.854 3.197C20.353 2.687 19.714 2.31 19 2.126V1H17V2.126A3.9959999999999996 3.9959999999999996 0 0 0 15.146 3.197L14.17 2.634L13.17 4.366L14.145 4.929zM18 4A2 2 0 1 1 18 8A2 2 0 0 1 18 4z" />
    <glyph glyph-name="chat-smile-2-fill"
      unicode="&#xE049;"
      horiz-adv-x="24" d="M7.291 3.176L2 2L3.176 7.291A9.956 9.956 0 0 0 2 12C2 17.523 6.477 22 12 22S22 17.523 22 12S17.523 2 12 2A9.956 9.956 0 0 0 7.291 3.176zM7 12A5 5 0 0 1 17 12H15A3 3 0 0 0 9 12H7z" />
    <glyph glyph-name="chat-smile-2-line"
      unicode="&#xE04A;"
      horiz-adv-x="24" d="M7.291 3.176L2 2L3.176 7.291A9.956 9.956 0 0 0 2 12C2 17.523 6.477 22 12 22S22 17.523 22 12S17.523 2 12 2A9.956 9.956 0 0 0 7.291 3.176zM7.581 5.289L8.234 4.939A7.955 7.955 0 0 1 12 4A8 8 0 1 1 4 12C4 10.666 4.325 9.382 4.94 8.234L5.289 7.581L4.634 4.634L7.581 5.289zM7 12H9A3 3 0 0 1 15 12H17A5 5 0 0 0 7 12z" />
    <glyph glyph-name="chat-smile-3-fill"
      unicode="&#xE04B;"
      horiz-adv-x="24" d="M4.929 4.929A9.969 9.969 0 0 0 2 12C2 17.523 6.477 22 12 22S22 17.523 22 12S17.523 2 12 2H2L4.929 4.929zM8 11A4 4 0 1 1 16 11H8z" />
    <glyph glyph-name="chat-smile-3-line"
      unicode="&#xE04C;"
      horiz-adv-x="24" d="M2 12C2 17.523 6.477 22 12 22S22 17.523 22 12S17.523 2 12 2H2L4.929 4.929A9.969 9.969 0 0 0 2 12zM6.828 4H12A8 8 0 1 1 4 12C4 9.848 4.851 7.835 6.343 6.343L7.757 4.929L6.828 4zM8 11H16A4 4 0 1 0 8 11z" />
    <glyph glyph-name="chat-smile-fill"
      unicode="&#xE04D;"
      horiz-adv-x="24" d="M6.455 5L2 1.5V20A1 1 0 0 0 3 21H21A1 1 0 0 0 22 20V6A1 1 0 0 0 21 5H6.455zM7 14A5 5 0 0 1 17 14H15A3 3 0 0 0 9 14H7z" />
    <glyph glyph-name="chat-smile-line"
      unicode="&#xE04E;"
      horiz-adv-x="24" d="M6.455 5L2 1.5V20A1 1 0 0 0 3 21H21A1 1 0 0 0 22 20V6A1 1 0 0 0 21 5H6.455zM5.763 7H20V19H4V5.615L5.763 7zM7 14H9A3 3 0 0 1 15 14H17A5 5 0 0 0 7 14z" />
    <glyph glyph-name="chat-upload-fill"
      unicode="&#xE04F;"
      horiz-adv-x="24" d="M6.455 5L2 1.5V20A1 1 0 0 0 3 21H21A1 1 0 0 0 22 20V6A1 1 0 0 0 21 5H6.455zM13 13H16L12 17L8 13H11V9H13V13z" />
    <glyph glyph-name="chat-upload-line"
      unicode="&#xE050;"
      horiz-adv-x="24" d="M6.455 5L2 1.5V20A1 1 0 0 0 3 21H21A1 1 0 0 0 22 20V6A1 1 0 0 0 21 5H6.455zM4 5.615L5.763 7H20V19H4V5.615zM13 13V9H11V13H8L12 17L16 13H13z" />
    <glyph glyph-name="chat-voice-fill"
      unicode="&#xE051;"
      horiz-adv-x="24" d="M4.929 4.929A9.969 9.969 0 0 0 2 12C2 17.523 6.477 22 12 22S22 17.523 22 12S17.523 2 12 2H2L4.929 4.929zM11 18V6H13V18H11zM7 15V9H9V15H7zM15 15V9H17V15H15z" />
    <glyph glyph-name="chat-voice-line"
      unicode="&#xE052;"
      horiz-adv-x="24" d="M2 12C2 17.523 6.477 22 12 22S22 17.523 22 12S17.523 2 12 2H2L4.929 4.929A9.969 9.969 0 0 0 2 12zM6.828 4H12A8 8 0 1 1 4 12C4 9.848 4.851 7.835 6.343 6.343L7.757 4.929L6.828 4zM11 18H13V6H11V18zM7 15H9V9H7V15zM15 15H17V9H15V15z" />
    <glyph glyph-name="discuss-fill"
      unicode="&#xE053;"
      horiz-adv-x="24" d="M16.8 5L14 1.5L11.2 5H6A1 1 0 0 0 5 6V16.897A1 1 0 0 0 6 17.897H22A1 1 0 0 0 23 16.897V6A1 1 0 0 0 22 5H16.8zM2 22H19V20H3V9H1V21A1 1 0 0 0 2 22z" />
    <glyph glyph-name="discuss-line"
      unicode="&#xE054;"
      horiz-adv-x="24" d="M14 1.5L11.2 5H6A1 1 0 0 0 5 6V16.897A1 1 0 0 0 6 17.897H22A1 1 0 0 0 23 16.897V6A1 1 0 0 0 22 5H16.8L14 1.5zM15.839 7H21V15.897H7V7H12.161L14 4.702L15.839 7zM2 22H19V20H3V9H1V21A1 1 0 0 0 2 22z" />
    <glyph glyph-name="feedback-fill"
      unicode="&#xE055;"
      horiz-adv-x="24" d="M6.455 5L2 1.5V20A1 1 0 0 0 3 21H21A1 1 0 0 0 22 20V6A1 1 0 0 0 21 5H6.455zM11 11V9H13V11H11zM11 17V12H13V17H11z" />
    <glyph glyph-name="feedback-line"
      unicode="&#xE056;"
      horiz-adv-x="24" d="M6.455 5L2 1.5V20A1 1 0 0 0 3 21H21A1 1 0 0 0 22 20V6A1 1 0 0 0 21 5H6.455zM4 5.615L5.763 7H20V19H4V5.615zM11 11H13V9H11V11zM11 17H13V12H11V17z" />
    <glyph glyph-name="message-2-fill"
      unicode="&#xE057;"
      horiz-adv-x="24" d="M6.455 5L2 1.5V20A1 1 0 0 0 3 21H21A1 1 0 0 0 22 20V6A1 1 0 0 0 21 5H6.455zM7 14V12H9V14H7zM11 14V12H13V14H11zM15 14V12H17V14H15z" />
    <glyph glyph-name="message-2-line"
      unicode="&#xE058;"
      horiz-adv-x="24" d="M6.455 5L2 1.5V20A1 1 0 0 0 3 21H21A1 1 0 0 0 22 20V6A1 1 0 0 0 21 5H6.455zM5.763 7H20V19H4V5.615L5.763 7zM11 14H13V12H11V14zM7 14H9V12H7V14zM15 14H17V12H15V14z" />
    <glyph glyph-name="message-3-fill"
      unicode="&#xE059;"
      horiz-adv-x="24" d="M2 15.006A5.99 5.99 0 0 0 8 21H16C19.313 21 22 18.305 22 15.006V3H8C4.687 3 2 5.695 2 8.994V15.006zM14 13V11H16V13H14zM8 13V11H10V13H8z" />
    <glyph glyph-name="message-3-line"
      unicode="&#xE05A;"
      horiz-adv-x="24" d="M2 15.006A5.99 5.99 0 0 0 8 21H16C19.313 21 22 18.305 22 15.006V3H8C4.687 3 2 5.695 2 8.994V15.006zM20 5V15.006A4.004 4.004 0 0 1 16 19H8A3.99 3.99 0 0 1 4 15.006V8.994A4.004 4.004 0 0 1 8 5H20zM14 13H16V11H14V13zM8 13H10V11H8V13z" />
    <glyph glyph-name="message-fill"
      unicode="&#xE05B;"
      horiz-adv-x="24" d="M6.455 5L2 1.5V20A1 1 0 0 0 3 21H21A1 1 0 0 0 22 20V6A1 1 0 0 0 21 5H6.455zM8 14V12H16V14H8z" />
    <glyph glyph-name="message-line"
      unicode="&#xE05C;"
      horiz-adv-x="24" d="M6.455 5L2 1.5V20A1 1 0 0 0 3 21H21A1 1 0 0 0 22 20V6A1 1 0 0 0 21 5H6.455zM5.763 7H20V19H4V5.615L5.763 7zM8 14H16V12H8V14z" />
    <glyph glyph-name="question-answer-fill"
      unicode="&#xE05D;"
      horiz-adv-x="24" d="M8 6H18.237L20 4.615V15H21A1 1 0 0 0 22 14V0.5L17.545 4H9A1 1 0 0 0 8 5V6zM5.455 8L1 4.5V20A1 1 0 0 0 2 21H17A1 1 0 0 0 18 20V8H5.455z" />
    <glyph glyph-name="question-answer-line"
      unicode="&#xE05E;"
      horiz-adv-x="24" d="M5.455 9L1 5.5V21A1 1 0 0 0 2 22H17A1 1 0 0 0 18 21V9H5.455zM4.763 11H16V20H3V9.615L4.763 11zM8 7H18.237L20 5.615V16H21A1 1 0 0 0 22 15V1.5L17.545 5H9A1 1 0 0 0 8 6V7z" />
    <glyph glyph-name="questionnaire-fill"
      unicode="&#xE05F;"
      horiz-adv-x="24" d="M6.455 5L2 1.5V20A1 1 0 0 0 3 21H21A1 1 0 0 0 22 20V6A1 1 0 0 0 21 5H6.455zM11 10V8H13V10H11zM8.567 15.187L10.529 14.794A1.5 1.5 0 1 0 12 13H11V11H12A3.5 3.5 0 1 1 8.567 15.187z" />
    <glyph glyph-name="questionnaire-line"
      unicode="&#xE060;"
      horiz-adv-x="24" d="M5.763 7H20V19H4V5.615L5.763 7zM6.455 5L2 1.5V20A1 1 0 0 0 3 21H21A1 1 0 0 0 22 20V6A1 1 0 0 0 21 5H6.455zM11 10H13V8H11V10zM8.567 15.187A3.501 3.501 0 1 0 12 11H11V13H12A1.5 1.5 0 1 1 10.529 14.794L8.567 15.187z" />
    <glyph glyph-name="video-chat-fill"
      unicode="&#xE061;"
      horiz-adv-x="24" d="M6.455 5L2 1.5V20A1 1 0 0 0 3 21H21A1 1 0 0 0 22 20V6A1 1 0 0 0 21 5H6.455zM14 13.75V16H7V10H14V12.25L17 10V16L14 13.75z" />
    <glyph glyph-name="video-chat-line"
      unicode="&#xE062;"
      horiz-adv-x="24" d="M14 13.75L17 16V10L14 12.25V10H7V16H14V13.75zM5.763 7H20V19H4V5.615L5.763 7zM6.455 5L2 1.5V20A1 1 0 0 0 3 21H21A1 1 0 0 0 22 20V6A1 1 0 0 0 21 5H6.455z" />
    <glyph glyph-name="archive-drawer-fill"
      unicode="&#xE063;"
      horiz-adv-x="24" d="M3 11H21V2.998C21 2.447 20.555 2 20.007 2H3.993A0.9950000000000001 0.9950000000000001 0 0 0 3 2.998V11zM3 21.002C3 21.553 3.445 22 3.993 22H20.007C20.555 22 21 21.554 21 21.002V13H3V21.002zM9 19V17H15V19H9zM9 8V6H15V8H9z" />
    <glyph glyph-name="archive-drawer-line"
      unicode="&#xE064;"
      horiz-adv-x="24" d="M3 21.008C3 21.556 3.445 22 3.993 22H20.007A1 1 0 0 0 21 21.008V2.992A0.993 0.993 0 0 0 20.007 2H3.993A1 1 0 0 0 3 2.992V21.008zM19 13V20H5V13H19zM19 11H5V4H19V11zM9 18H15V16H9V18zM9 9H15V7H9V9z" />
    <glyph glyph-name="archive-fill"
      unicode="&#xE065;"
      horiz-adv-x="24" d="M3 14H21V3.996C21 3.446 20.555 3 20.007 3H3.993A0.9940000000000001 0.9940000000000001 0 0 0 3 3.996V14zM9 12V10H15V12H9zM2 20C2 20.552 2.455 21 2.992 21H21.008C21.556 21 22 20.556 22 20V16H2V20z" />
    <glyph glyph-name="archive-line"
      unicode="&#xE066;"
      horiz-adv-x="24" d="M3 14H2V19.997C2 20.551 2.455 21 2.992 21H21.008A0.99 0.99 0 0 0 22 19.997V14H21V3.999A0.996 0.996 0 0 0 20.007 3H3.993A0.996 0.996 0 0 0 3 3.999V14zM19 14H5V5H19V14zM4 19V16H20V19H4zM9 12H15V10H9V12z" />
    <glyph glyph-name="at-fill"
      unicode="&#xE067;"
      horiz-adv-x="24" d="M12 2C6.477 2 2 6.477 2 12S6.477 22 12 22S22 17.523 22 12S17.523 2 12 2zM20 12A8 8 0 1 1 16.032 5.089L15.024 6.816A6 6 0 1 0 18 12V11A1 1 0 0 0 16 11V15H14.646A4 4 0 1 1 14.712 9.06A3 3 0 0 1 20 11V12zM12 14A2 2 0 1 0 12 10A2 2 0 0 0 12 14z" />
    <glyph glyph-name="at-line"
      unicode="&#xE068;"
      horiz-adv-x="24" d="M20 12A8 8 0 1 1 16.438 5.343L17.548 3.679A9.952999999999998 9.952999999999998 0 0 0 12 2C6.477 2 2 6.477 2 12S6.477 22 12 22S22 17.523 22 12V10.5A3.5 3.5 0 0 0 15.604 8.534A5 5 0 1 0 15 16H17V10.5A1.5 1.5 0 0 1 20 10.5V12zM12 15A3 3 0 1 1 12 9A3 3 0 0 1 12 15z" />
    <glyph glyph-name="attachment-fill"
      unicode="&#xE069;"
      horiz-adv-x="24" d="M20.997 21.008L21 2.992A1 1 0 0 0 20.007 2H3.993A0.993 0.993 0 0 0 3 2.992V21.008A1 1 0 0 0 3.993 22H20.003C20.552 22 20.997 21.556 20.997 21.008zM9 11V15A1 1 0 1 0 11 15V11A1 1 0 0 1 13 11V15A3 3 0 0 1 7 15V11A5 5 0 0 1 17 11V16H15V11A3 3 0 0 0 9 11z" />
    <glyph glyph-name="attachment-line"
      unicode="&#xE06A;"
      horiz-adv-x="24" d="M14 10.5V16A4 4 0 1 1 6 16V10.5A6.5 6.5 0 1 1 19 10.5V20H21V10.5A8.5 8.5 0 1 0 4 10.5V16A6 6 0 1 0 16 16V10.5A3.5 3.5 0 0 0 9 10.5V16H11V10.5A1.5 1.5 0 0 1 14 10.5z" />
    <glyph glyph-name="award-fill"
      unicode="&#xE06B;"
      horiz-adv-x="24" d="M17 8.755V1.883A0.5 0.5 0 0 0 16.243 1.454L12 4L7.757 1.454A0.5 0.5 0 0 0 7 1.884V8.754A8 8 0 1 0 17 8.754zM12 9A6 6 0 1 1 12 21A6 6 0 0 1 12 9zM12 11A4 4 0 1 0 12 19A4 4 0 0 0 12 11z" />
    <glyph glyph-name="award-line"
      unicode="&#xE06C;"
      horiz-adv-x="24" d="M17 8.755V1.883A0.5 0.5 0 0 0 16.243 1.454L12 4L7.757 1.454A0.5 0.5 0 0 0 7 1.884V8.754A8 8 0 1 0 17 8.754zM9 7.582V4.532L12 6.332L15 4.532V7.582A7.978 7.978 0 0 0 12 7A7.978 7.978 0 0 0 9 7.582zM12 9A6 6 0 1 1 12 21A6 6 0 0 1 12 9z" />
    <glyph glyph-name="bar-chart-2-fill"
      unicode="&#xE06D;"
      horiz-adv-x="24" d="M2 11H8V3H2V11zM9 21H15V3H9V21zM16 16H22V3H16V16z" />
    <glyph glyph-name="bar-chart-2-line"
      unicode="&#xE06E;"
      horiz-adv-x="24" d="M2 11H8V3H2V11zM16 16H22V3H16V16zM9 21H15V3H9V21zM4 9V5H6V9H4zM11 19V5H13V19H11zM18 14V5H20V14H18z" />
    <glyph glyph-name="bar-chart-box-fill"
      unicode="&#xE06F;"
      horiz-adv-x="24" d="M3 21H21A1 1 0 0 0 22 20V4A1 1 0 0 0 21 3H3A1 1 0 0 0 2 4V20A1 1 0 0 0 3 21zM7 11V7H9V11H7zM11 17V7H13V17H11zM15 14V7H17V14H15z" />
    <glyph glyph-name="bar-chart-box-line"
      unicode="&#xE070;"
      horiz-adv-x="24" d="M3 21H21A1 1 0 0 0 22 20V4A1 1 0 0 0 21 3H3A1 1 0 0 0 2 4V20A1 1 0 0 0 3 21zM4 19V5H20V19H4zM7 11H9V7H7V11zM11 17H13V7H11V17zM15 14H17V7H15V14z" />
    <glyph glyph-name="bar-chart-fill"
      unicode="&#xE071;"
      horiz-adv-x="24" d="M3 12H7V3H3V12zM17 16H21V3H17V16zM10 22H14V3H10V22z" />
    <glyph glyph-name="bar-chart-grouped-fill"
      unicode="&#xE072;"
      horiz-adv-x="24" d="M2 12H4V3H2V12zM5 10H7V3H5V10zM16 16H18V3H16V16zM19 14H21V3H19V14zM9 22H11V3H9V22zM12 20H14V3H12V20z" />
    <glyph glyph-name="bar-chart-grouped-line"
      unicode="&#xE073;"
      horiz-adv-x="24" d="M2 12H4V3H2V12zM5 10H7V3H5V10zM16 16H18V3H16V16zM19 14H21V3H19V14zM9 22H11V3H9V22zM12 20H14V3H12V20z" />
    <glyph glyph-name="bar-chart-horizontal-fill"
      unicode="&#xE074;"
      horiz-adv-x="24" d="M12 21V17H3V21H12zM16 7V3H3V7H16zM22 14V10H3V14H22z" />
    <glyph glyph-name="bar-chart-horizontal-line"
      unicode="&#xE075;"
      horiz-adv-x="24" d="M12 21V19H3V21H12zM16 5V3H3V5H16zM22 13V11H3V13H22z" />
    <glyph glyph-name="bar-chart-line"
      unicode="&#xE076;"
      horiz-adv-x="24" d="M3 12H5V3H3V12zM19 16H21V3H19V16zM11 22H13V3H11V22z" />
    <glyph glyph-name="bookmark-2-fill"
      unicode="&#xE077;"
      horiz-adv-x="24" d="M5 22H19A1 1 0 0 0 20 21V1.857A0.5 0.5 0 0 0 19.234 1.433L12 5.97L4.766 1.434A0.5 0.5 0 0 0 4 1.857V21A1 1 0 0 0 5 22zM8 15V13H16V15H8z" />
    <glyph glyph-name="bookmark-2-line"
      unicode="&#xE078;"
      horiz-adv-x="24" d="M5 22H19A1 1 0 0 0 20 21V1.857A0.5 0.5 0 0 0 19.234 1.433L12 5.97L4.766 1.434A0.5 0.5 0 0 0 4 1.857V21A1 1 0 0 0 5 22zM18 20H6V4.568L12 8.329L18 4.568V20zM8 15H16V13H8V15z" />
    <glyph glyph-name="bookmark-3-fill"
      unicode="&#xE079;"
      horiz-adv-x="24" d="M4 22H20A1 1 0 0 0 21 21V1.724A0.5 0.5 0 0 0 20.296 1.267L12 4.97L3.704 1.268A0.5 0.5 0 0 0 3 1.724V21A1 1 0 0 0 4 22zM12 10.5L14.939 8.955L14.378 12.227L16.755 14.545L13.469 15.023L12 18L10.53 15.023L7.245 14.545L9.622 12.227L9.062 8.955L12 10.5z" />
    <glyph glyph-name="bookmark-3-line"
      unicode="&#xE07A;"
      horiz-adv-x="24" d="M4 22H20A1 1 0 0 0 21 21V1.724A0.5 0.5 0 0 0 20.296 1.267L12 4.97L3.704 1.268A0.5 0.5 0 0 0 3 1.724V21A1 1 0 0 0 4 22zM19 4.035V20H5V4.035L12 7.159L19 4.035zM12 10.5L9.061 8.955L9.622 12.227L7.245 14.545L10.531 15.023L12 18L13.47 15.023L16.755 14.545L14.378 12.227L14.938 8.955L12 10.5z" />
    <glyph glyph-name="bookmark-fill"
      unicode="&#xE07B;"
      horiz-adv-x="24" d="M5 22H19A1 1 0 0 0 20 21V1.857A0.5 0.5 0 0 0 19.234 1.433L12 5.97L4.766 1.434A0.5 0.5 0 0 0 4 1.857V21A1 1 0 0 0 5 22z" />
    <glyph glyph-name="bookmark-line"
      unicode="&#xE07C;"
      horiz-adv-x="24" d="M5 22H19A1 1 0 0 0 20 21V1.857A0.5 0.5 0 0 0 19.234 1.433L12 5.97L4.766 1.434A0.5 0.5 0 0 0 4 1.857V21A1 1 0 0 0 5 22zM18 20H6V4.568L12 8.329L18 4.568V20z" />
    <glyph glyph-name="briefcase-2-fill"
      unicode="&#xE07D;"
      horiz-adv-x="24" d="M7 19V22A1 1 0 0 0 8 23H16A1 1 0 0 0 17 22V19H21A1 1 0 0 0 22 18V4A1 1 0 0 0 21 3H3A1 1 0 0 0 2 4V18A1 1 0 0 0 3 19H7zM17 11V14H15V11H9V14H7V11H4V5H20V11H17zM9 21V19H15V21H9z" />
    <glyph glyph-name="briefcase-2-line"
      unicode="&#xE07E;"
      horiz-adv-x="24" d="M7 19V22A1 1 0 0 0 8 23H16A1 1 0 0 0 17 22V19H21A1 1 0 0 0 22 18V4A1 1 0 0 0 21 3H3A1 1 0 0 0 2 4V18A1 1 0 0 0 3 19H7zM20 11H4V5H20V11zM20 17H4V13H7V15H9V13H15V15H17V13H20V17zM9 21V19H15V21H9z" />
    <glyph glyph-name="briefcase-3-fill"
      unicode="&#xE07F;"
      horiz-adv-x="24" d="M7 19V22A1 1 0 0 0 8 23H16A1 1 0 0 0 17 22V19H21A1 1 0 0 0 22 18V4A1 1 0 0 0 21 3H3A1 1 0 0 0 2 4V18A1 1 0 0 0 3 19H7zM17 17V12H20V17H17zM15 17H9V12H15V17zM7 17H4V12H7V17zM9 21V19H15V21H9z" />
    <glyph glyph-name="briefcase-3-line"
      unicode="&#xE080;"
      horiz-adv-x="24" d="M7 19V22A1 1 0 0 0 8 23H16A1 1 0 0 0 17 22V19H21A1 1 0 0 0 22 18V4A1 1 0 0 0 21 3H3A1 1 0 0 0 2 4V18A1 1 0 0 0 3 19H7zM15 17H9V5H15V17zM7 17H4V5H7V17zM17 17V5H20V17H17zM9 21V19H15V21H9z" />
    <glyph glyph-name="briefcase-4-fill"
      unicode="&#xE081;"
      horiz-adv-x="24" d="M9 11V8H15V11H22V4A1 1 0 0 0 21 3H3A1 1 0 0 0 2 4V11H9zM11 13H13V10H11V13zM7 19V22A1 1 0 0 0 8 23H16A1 1 0 0 0 17 22V19H21A1 1 0 0 0 22 18V13H15V15H9V13H2V18A1 1 0 0 0 3 19H7zM9 21V19H15V21H9z" />
    <glyph glyph-name="briefcase-4-line"
      unicode="&#xE082;"
      horiz-adv-x="24" d="M7 19V22A1 1 0 0 0 8 23H16A1 1 0 0 0 17 22V19H21A1 1 0 0 0 22 18V4A1 1 0 0 0 21 3H3A1 1 0 0 0 2 4V18A1 1 0 0 0 3 19H7zM9 11H4V5H20V11H15V8H9V11zM20 17H4V13H9V15H15V13H20V17zM11 13V10H13V13H11zM9 21V19H15V21H9z" />
    <glyph glyph-name="briefcase-5-fill"
      unicode="&#xE083;"
      horiz-adv-x="24" d="M7 19V22A1 1 0 0 0 8 23H16A1 1 0 0 0 17 22V19H21A1 1 0 0 0 22 18V4A1 1 0 0 0 21 3H3A1 1 0 0 0 2 4V18A1 1 0 0 0 3 19H7zM6 11V17H4V11H6zM8 17V11H11V13H13V11H16V17H8zM18 11H20V17H18V11zM9 21V19H15V21H9z" />
    <glyph glyph-name="briefcase-5-line"
      unicode="&#xE084;"
      horiz-adv-x="24" d="M7 19V22A1 1 0 0 0 8 23H16A1 1 0 0 0 17 22V19H21A1 1 0 0 0 22 18V4A1 1 0 0 0 21 3H3A1 1 0 0 0 2 4V18A1 1 0 0 0 3 19H7zM16 9H13V8H11V9H8V5H16V9zM8 17V11H11V12H13V11H16V17H8zM6 11V17H4V11H6zM18 11H20V17H18V11zM6 9H4V5H6V9zM18 9V5H20V9H18zM9 21V19H15V21H9z" />
    <glyph glyph-name="briefcase-fill"
      unicode="&#xE085;"
      horiz-adv-x="24" d="M7 19V22A1 1 0 0 0 8 23H16A1 1 0 0 0 17 22V19H21A1 1 0 0 0 22 18V4A1 1 0 0 0 21 3H3A1 1 0 0 0 2 4V18A1 1 0 0 0 3 19H7zM4 9V5H20V9H4zM11 13V11H13V13H11zM9 21V19H15V21H9z" />
    <glyph glyph-name="briefcase-line"
      unicode="&#xE086;"
      horiz-adv-x="24" d="M7 19V22A1 1 0 0 0 8 23H16A1 1 0 0 0 17 22V19H21A1 1 0 0 0 22 18V4A1 1 0 0 0 21 3H3A1 1 0 0 0 2 4V18A1 1 0 0 0 3 19H7zM4 8V5H20V8H4zM4 10H20V17H4V10zM9 21V19H15V21H9zM11 13H13V11H11V13z" />
    <glyph glyph-name="calculator-fill"
      unicode="&#xE087;"
      horiz-adv-x="24" d="M4 22H20A1 1 0 0 0 21 21V3A1 1 0 0 0 20 2H4A1 1 0 0 0 3 3V21A1 1 0 0 0 4 22zM7 12V10H9V12H7zM7 8V6H9V8H7zM11 12V10H13V12H11zM11 8V6H13V8H11zM15 12V6H17V12H15zM7 18V14H17V18H7z" />
    <glyph glyph-name="calculator-line"
      unicode="&#xE088;"
      horiz-adv-x="24" d="M4 22H20A1 1 0 0 0 21 21V3A1 1 0 0 0 20 2H4A1 1 0 0 0 3 3V21A1 1 0 0 0 4 22zM5 20V4H19V20H5zM7 18H17V14H7V18zM7 12H9V10H7V12zM7 8H9V6H7V8zM11 12H13V10H11V12zM11 8H13V6H11V8zM15 12H17V6H15V12z" />
    <glyph glyph-name="calendar-2-fill"
      unicode="&#xE089;"
      horiz-adv-x="24" d="M17 21H21A1 1 0 0 0 22 20V4A1 1 0 0 0 21 3H3A1 1 0 0 0 2 4V20A1 1 0 0 0 3 21H7V23H9V21H15V23H17V21zM4 15V5H20V15H4zM6 13H8V11H6V13zM11 13H13V11H11V13zM16 13H18V11H16V13z" />
    <glyph glyph-name="calendar-2-line"
      unicode="&#xE08A;"
      horiz-adv-x="24" d="M17 21H21A1 1 0 0 0 22 20V4A1 1 0 0 0 21 3H3A1 1 0 0 0 2 4V20A1 1 0 0 0 3 21H7V23H9V21H15V23H17V21zM20 13H4V5H20V13zM15 19H9V17H7V19H4V15H20V19H17V17H15V19zM6 11H8V9H6V11zM11 11H13V9H11V11zM16 11H18V9H16V11z" />
    <glyph glyph-name="calendar-event-fill"
      unicode="&#xE08B;"
      horiz-adv-x="24" d="M17 21H21A1 1 0 0 0 22 20V4A1 1 0 0 0 21 3H3A1 1 0 0 0 2 4V20A1 1 0 0 0 3 21H7V23H9V21H15V23H17V21zM4 15V5H20V15H4zM6 11H11V7H6V11z" />
    <glyph glyph-name="calendar-event-line"
      unicode="&#xE08C;"
      horiz-adv-x="24" d="M17 21H21A1 1 0 0 0 22 20V4A1 1 0 0 0 21 3H3A1 1 0 0 0 2 4V20A1 1 0 0 0 3 21H7V23H9V21H15V23H17V21zM20 15V19H17V17H15V19H9V17H7V19H4V15H20zM20 13H4V5H20V13zM6 11H11V7H6V11z" />
    <glyph glyph-name="calendar-fill"
      unicode="&#xE08D;"
      horiz-adv-x="24" d="M2 13H22V4A1 1 0 0 0 21 3H3A1 1 0 0 0 2 4V13zM17 21H21A1 1 0 0 0 22 20V15H2V20A1 1 0 0 0 3 21H7V23H9V21H15V23H17V21z" />
    <glyph glyph-name="calendar-line"
      unicode="&#xE08E;"
      horiz-adv-x="24" d="M17 21H21A1 1 0 0 0 22 20V4A1 1 0 0 0 21 3H3A1 1 0 0 0 2 4V20A1 1 0 0 0 3 21H7V23H9V21H15V23H17V21zM15 19H9V17H7V19H4V15H20V19H17V17H15V19zM20 13H4V5H20V13z" />
    <glyph glyph-name="calendar-todo-fill"
      unicode="&#xE08F;"
      horiz-adv-x="24" d="M17 21H21A1 1 0 0 0 22 20V4A1 1 0 0 0 21 3H3A1 1 0 0 0 2 4V20A1 1 0 0 0 3 21H7V23H9V21H15V23H17V21zM4 15V5H20V15H4zM6 13H8V11H6V13zM6 9H8V7H6V9zM10 13H18V11H10V13zM10 9H15V7H10V9z" />
    <glyph glyph-name="calendar-todo-line"
      unicode="&#xE090;"
      horiz-adv-x="24" d="M17 21H21A1 1 0 0 0 22 20V4A1 1 0 0 0 21 3H3A1 1 0 0 0 2 4V20A1 1 0 0 0 3 21H7V23H9V21H15V23H17V21zM15 19H9V17H7V19H4V15H20V19H17V17H15V19zM20 13H4V5H20V13zM6 10H8V8H6V10zM10 10H18V8H10V10z" />
    <glyph glyph-name="cloud-fill"
      unicode="&#xE091;"
      horiz-adv-x="24" d="M17 17A8.003 8.003 0 0 1 9.507 11.81L11.381 11.107A6.002 6.002 0 0 0 23 9A6 6 0 0 0 17 3H7A6 6 0 0 0 5.008 14.661A7 7 0 0 0 18.765 16.804A8.027 8.027 0 0 1 17 17z" />
    <glyph glyph-name="cloud-line"
      unicode="&#xE092;"
      horiz-adv-x="24" d="M17 3H7A6 6 0 0 0 5.008 14.661A7 7 0 1 0 18.992 14.661A6 6 0 0 0 17 3zM17 15A5 5 0 1 1 7.006 14.757L7.076 13.269L5.672 12.775A4.002 4.002 0 0 1 7 5H17A4 4 0 1 1 13.204 10.265L11.306 10.898A6.003 6.003 0 0 0 17 15z" />
    <glyph glyph-name="customer-service-2-fill"
      unicode="&#xE093;"
      horiz-adv-x="24" d="M21 16A2 2 0 0 0 23 14V10A2 2 0 0 0 21 8H19.938A8.001 8.001 0 0 0 12 1V3A6 6 0 0 1 18 9V15A6 6 0 1 1 6 15V8H3A2 2 0 0 0 1 10V14A2 2 0 0 0 3 16H4.062A8.001 8.001 0 0 0 19.938 16H21zM7.76 8.215L8.82 9.911A5.972 5.972 0 0 1 12 9A5.972 5.972 0 0 1 15.18 9.911L16.24 8.215A7.963 7.963 0 0 0 12 7A7.963 7.963 0 0 0 7.76 8.215z" />
    <glyph glyph-name="customer-service-2-line"
      unicode="&#xE094;"
      horiz-adv-x="24" d="M19.938 16H21A2 2 0 0 0 23 14V10A2 2 0 0 0 21 8H19.938A8.001 8.001 0 0 0 12 1V3A6 6 0 0 1 18 9V15A6 6 0 1 1 6 15V8H3A2 2 0 0 0 1 10V14A2 2 0 0 0 3 16H4.062A8.001 8.001 0 0 0 19.938 16zM3 14V10H4V14H3zM20 14V10H21V14H20zM7.76 8.215L8.82 9.911A5.972 5.972 0 0 1 12 9A5.972 5.972 0 0 1 15.18 9.911L16.24 8.215A7.963 7.963 0 0 0 12 7A7.963 7.963 0 0 0 7.76 8.215z" />
    <glyph glyph-name="customer-service-fill"
      unicode="&#xE095;"
      horiz-adv-x="24" d="M22 6.998A6.002 6.002 0 0 0 17.287 1.138L16.649 3.052A4.003 4.003 0 0 1 19.465 5H17A2 2 0 0 0 15 7V11A2 2 0 0 0 17 13H19.938A8.001 8.001 0 0 1 4.062 13H7A2 2 0 0 0 9 11V7A2 2 0 0 0 7 5H4A2 2 0 0 0 2 7V12C2 17.523 6.477 22 12 22S22 17.523 22 12V6.998z" />
    <glyph glyph-name="customer-service-line"
      unicode="&#xE096;"
      horiz-adv-x="24" d="M22 6.998A6.002 6.002 0 0 0 17.287 1.138L16.649 3.052A4.003 4.003 0 0 1 19.465 5H17A2 2 0 0 0 15 7V11A2 2 0 0 0 17 13H19.938A8.001 8.001 0 0 1 4.062 13H7A2 2 0 0 0 9 11V7A2 2 0 0 0 7 5H4A2 2 0 0 0 2 7V12C2 17.523 6.477 22 12 22S22 17.523 22 12V6.998zM20 7V11H17V7H20zM4 11V7H7V11H4z" />
    <glyph glyph-name="flag-2-fill"
      unicode="&#xE097;"
      horiz-adv-x="24" d="M2 21H21.138A0.5 0.5 0 0 0 21.573 20.252L18 14L21.573 7.748A0.5 0.5 0 0 0 21.138 7H4V2H2V21z" />
    <glyph glyph-name="flag-2-line"
      unicode="&#xE098;"
      horiz-adv-x="24" d="M4 7V2H2V21H21.138A0.5 0.5 0 0 0 21.573 20.252L18 14L21.573 7.748A0.5 0.5 0 0 0 21.138 7H4zM4 19V9H18.554L15.696 14L18.554 19H4z" />
    <glyph glyph-name="flag-fill"
      unicode="&#xE099;"
      horiz-adv-x="24" d="M3 21H12.382A1 1 0 0 0 13.276 20.447L14 19H20A1 1 0 0 0 21 18V7A1 1 0 0 0 20 6H13.618A1 1 0 0 0 12.724 6.553L12 8H5V2H3V21z" />
    <glyph glyph-name="flag-line"
      unicode="&#xE09A;"
      horiz-adv-x="24" d="M5 8V2H3V21H12.382A1 1 0 0 0 13.276 20.447L14 19H20A1 1 0 0 0 21 18V7A1 1 0 0 0 20 6H13.618A1 1 0 0 0 12.724 6.553L12 8H5zM5 19V10H13.236L14.236 8H19V17H12.764L11.764 19H5z" />
    <glyph glyph-name="global-fill"
      unicode="&#xE09B;"
      horiz-adv-x="24" d="M2.05 11H7.527A17.9 17.9 0 0 1 10.452 2.12A10.005 10.005 0 0 0 2.05 11zM2.05 13A10.005 10.005 0 0 0 10.452 21.88A17.9 17.9 0 0 1 7.527 13H2.05zM21.95 13H16.473A17.9 17.9 0 0 1 13.548 21.88A10.005 10.005 0 0 0 21.95 13zM21.95 11A10.005 10.005 0 0 0 13.548 2.12A17.9 17.9 0 0 1 16.473 11H21.951zM9.53 11H14.47A15.908 15.908 0 0 0 12 3.408A15.908 15.908 0 0 0 9.53 11zM9.53 13A15.908 15.908 0 0 0 12 20.592A15.908 15.908 0 0 0 14.47 13H9.53z" />
    <glyph glyph-name="global-line"
      unicode="&#xE09C;"
      horiz-adv-x="24" d="M12 2C6.477 2 2 6.477 2 12S6.477 22 12 22S22 17.523 22 12S17.523 2 12 2zM9.71 4.333A17.9 17.9 0 0 0 8.027 11H4.062A8.008 8.008 0 0 1 9.71 4.333zM10.03 11C10.181 8.561 10.878 6.27 12 4.248A15.904999999999998 15.904999999999998 0 0 1 13.97 11H10.03zM19.938 11H15.973A17.9 17.9 0 0 0 14.29 4.333A8.008 8.008 0 0 1 19.938 11zM4.062 13H8.027A17.9 17.9 0 0 0 9.71 19.667A8.008 8.008 0 0 1 4.062 13zM10.031 13H13.969A15.904999999999998 15.904999999999998 0 0 1 12 19.752A15.904999999999998 15.904999999999998 0 0 1 10.03 13zM14.29 19.667A17.9 17.9 0 0 0 15.973 13H19.938A8.008 8.008 0 0 1 14.29 19.667z" />
    <glyph glyph-name="honour-fill"
      unicode="&#xE09D;"
      horiz-adv-x="24" d="M21 20V5.279A0.5 0.5 0 0 0 20.702 4.821L12 0.97L3.298 4.82A0.5 0.5 0 0 0 3 5.28V20H1V22H23V20H21zM8 12V10H16V12H8zM8 16V14H16V16H8z" />
    <glyph glyph-name="honour-line"
      unicode="&#xE09E;"
      horiz-adv-x="24" d="M21 20V5.279A0.5 0.5 0 0 0 20.702 4.821L12 0.97L3.298 4.82A0.5 0.5 0 0 0 3 5.28V20H1V22H23V20H21zM5 20V6.255L12 3.155L19 6.255V20H5zM8 16H16V14H8V16zM8 12H16V10H8V12z" />
    <glyph glyph-name="inbox-archive-fill"
      unicode="&#xE09F;"
      horiz-adv-x="24" d="M4 21H20L22 17V4A1 1 0 0 0 21 3H3A1 1 0 0 0 2 4V16.996L4 21zM13 10V14H11V10H8L12 6L16 10H13zM19.764 17L18.764 19H5.237L4.237 17H19.764z" />
    <glyph glyph-name="inbox-archive-line"
      unicode="&#xE0A0;"
      horiz-adv-x="24" d="M4 21H20L22 17V4A1 1 0 0 0 21 3H3A1 1 0 0 0 2 4V16.996L4 21zM20 15H4V5H20V15zM19.764 17L18.764 19H5.237L4.237 17H19.764zM13 10H16L12 6L8 10H11V14H13V10z" />
    <glyph glyph-name="inbox-fill"
      unicode="&#xE0A1;"
      horiz-adv-x="24" d="M3 21H21A1 1 0 0 0 22 20V4A1 1 0 0 0 21 3H3A1 1 0 0 0 2 4V20A1 1 0 0 0 3 21zM9 12A3 3 0 0 1 15 12H20V19H4V12H9z" />
    <glyph glyph-name="inbox-line"
      unicode="&#xE0A2;"
      horiz-adv-x="24" d="M3 21H21A1 1 0 0 0 22 20V4A1 1 0 0 0 21 3H3A1 1 0 0 0 2 4V20A1 1 0 0 0 3 21zM20 10H16.584A5.001 5.001 0 0 0 7.416 10H4V5H20V10zM20 12V19H4V12H9A3 3 0 0 1 15 12H20z" />
    <glyph glyph-name="links-fill"
      unicode="&#xE0A3;"
      horiz-adv-x="24" d="M13.06 15.89L14.475 14.475A7 7 0 0 0 14.475 4.575L14.121 4.222A7 7 0 0 0 4.221 14.122L5.636 12.707A5 5 0 1 1 12.707 5.636L13.061 5.99A5 5 0 0 1 13.061 13.06L11.646 14.475L13.061 15.889zM19.778 9.879L18.364 11.293A5 5 0 1 1 11.293 18.364L10.939 18.01A5 5 0 0 1 10.939 10.94L12.354 9.525L10.939 8.111L9.525 9.525A7 7 0 0 0 9.525 19.425L9.879 19.778A7 7 0 0 0 19.779 9.878z" />
    <glyph glyph-name="links-line"
      unicode="&#xE0A4;"
      horiz-adv-x="24" d="M13.06 15.89L14.475 14.475A7 7 0 0 0 14.475 4.575L14.121 4.222A7 7 0 0 0 4.221 14.122L5.636 12.707A5 5 0 1 1 12.707 5.636L13.061 5.99A5 5 0 0 1 13.061 13.06L11.646 14.475L13.061 15.889zM19.778 9.879L18.364 11.293A5 5 0 1 1 11.293 18.364L10.939 18.01A5 5 0 0 1 10.939 10.94L12.354 9.525L10.939 8.111L9.525 9.525A7 7 0 0 0 9.525 19.425L9.879 19.778A7 7 0 0 0 19.779 9.878z" />
    <glyph glyph-name="mail-add-fill"
      unicode="&#xE0A5;"
      horiz-adv-x="24" d="M22 10.659A6 6 0 0 1 14.341 3H3A1 1 0 0 0 2 4V20A1 1 0 0 0 3 21H21A1 1 0 0 0 22 20V10.659zM12.06 12.317L5.648 17.762L4.353 16.238L12.073 9.683L19.654 16.243L18.346 17.756L12.061 12.317zM21 6H24V4H21V1H19V4H16V6H19V9H21V6z" />
    <glyph glyph-name="mail-add-line"
      unicode="&#xE0A6;"
      horiz-adv-x="24" d="M22 11H20V16.762L12.072 9.662L4 16.784V5H14V3H3A1 1 0 0 0 2 4V20A1 1 0 0 0 3 21H21A1 1 0 0 0 22 20V11zM4.511 19L12.061 12.338L19.502 19H4.511zM21 6H24V4H21V1H19V4H16V6H19V9H21V6z" />
    <glyph glyph-name="mail-check-fill"
      unicode="&#xE0A7;"
      horiz-adv-x="24" d="M22 10.659A6 6 0 0 1 14.341 3H3A1 1 0 0 0 2 4V20A1 1 0 0 0 3 21H21A1 1 0 0 0 22 20V10.659zM12.06 12.317L5.648 17.762L4.353 16.238L12.073 9.683L19.654 16.243L18.346 17.756L12.061 12.317zM19 2L15.464 5.536L16.879 6.95L19 4.828L22.536 8.364L23.95 6.95L19 2z" />
    <glyph glyph-name="mail-check-line"
      unicode="&#xE0A8;"
      horiz-adv-x="24" d="M22 10H20V16.762L12.072 9.662L4 16.784V5H14V3H3A1 1 0 0 0 2 4V20A1 1 0 0 0 3 21H21A1 1 0 0 0 22 20V10zM4.511 19L12.061 12.338L19.502 19H4.511zM19 2L15.464 5.536L16.879 6.95L19 4.828L22.536 8.364L23.95 6.95L19 2z" />
    <glyph glyph-name="mail-close-fill"
      unicode="&#xE0A9;"
      horiz-adv-x="24" d="M22 10.659A6 6 0 0 1 14.341 3H3A1 1 0 0 0 2 4V20A1 1 0 0 0 3 21H21A1 1 0 0 0 22 20V10.659zM12.06 12.317L5.648 17.762L4.353 16.238L12.073 9.683L19.654 16.243L18.346 17.756L12.061 12.317zM21.415 5L23.537 2.879L22.122 1.464L20 3.586L17.879 1.464L16.464 2.879L18.586 5L16.464 7.121L17.879 8.536L20 6.414L22.121 8.536L23.536 7.121L21.414 5z" />
    <glyph glyph-name="mail-close-line"
      unicode="&#xE0AA;"
      horiz-adv-x="24" d="M22 10H20V16.762L12.072 9.662L4 16.784V5H15V3H3A1 1 0 0 0 2 4V20A1 1 0 0 0 3 21H21A1 1 0 0 0 22 20V10zM4.511 19L12.061 12.338L19.502 19H4.511zM21.414 5L23.536 2.879L22.121 1.464L20 3.586L17.879 1.464L16.464 2.879L18.586 5L16.464 7.121L17.879 8.536L20 6.414L22.121 8.536L23.536 7.121L21.414 5z" />
    <glyph glyph-name="mail-download-fill"
      unicode="&#xE0AB;"
      horiz-adv-x="24" d="M22 11.197A6 6 0 0 1 13.803 3H3A1 1 0 0 0 2 4V20A1 1 0 0 0 3 21H21A1 1 0 0 0 22 20V11.197zM12.06 12.317L5.648 17.762L4.353 16.238L12.073 9.683L19.654 16.243L18.346 17.756L12.061 12.317zM20 6H23L19 2L15 6H18V10H20V6z" />
    <glyph glyph-name="mail-download-line"
      unicode="&#xE0AC;"
      horiz-adv-x="24" d="M20 16.762L12.072 9.662L4 16.784V5H13V3H3A1 1 0 0 0 2 4V20A1 1 0 0 0 3 21H21A1 1 0 0 0 22 20V12H20V16.762zM19.501 19H4.511L12.061 12.338L19.502 19zM20 6H23L19 2L15 6H18V10H20V6z" />
    <glyph glyph-name="mail-fill"
      unicode="&#xE0AD;"
      horiz-adv-x="24" d="M3 21H21A1 1 0 0 0 22 20V4A1 1 0 0 0 21 3H3A1 1 0 0 0 2 4V20A1 1 0 0 0 3 21zM12.06 12.317L5.648 17.762L4.353 16.238L12.073 9.683L19.654 16.243L18.346 17.756L12.061 12.317z" />
    <glyph glyph-name="mail-forbid-fill"
      unicode="&#xE0AE;"
      horiz-adv-x="24" d="M15.266 12.446L19.654 16.244L18.346 17.756L12.061 12.317L5.647 17.762L4.353 16.238L12.055 9.698A6.967 6.967 0 0 1 11 6C11 4.926 11.242 3.91 11.674 3H3A1 1 0 0 0 2 4V20A1 1 0 0 0 3 21H21A1 1 0 0 0 22 20V11.745A6.967999999999999 6.967999999999999 0 0 1 18 13C17.03 13 16.106 12.803 15.266 12.446zM16.706 3.292A3 3 0 0 1 20.707 7.293L16.707 3.293zM15.292 4.707L19.293 8.707A3 3 0 0 1 15.292 4.706zM18 1A5 5 0 1 0 18 11A5 5 0 0 0 18 1z" />
    <glyph glyph-name="mail-forbid-line"
      unicode="&#xE0AF;"
      horiz-adv-x="24" d="M20 16.762L12.072 9.662L4 16.784V5H11.07A6.95 6.95 0 0 1 11.674 3H3A1 1 0 0 0 2 4V20A1 1 0 0 0 3 21H21A1 1 0 0 0 22 20V11.745A6.972 6.972 0 0 1 20 12.71V16.762zM19.501 19H4.511L12.061 12.338L19.502 19zM16.707 3.292A3 3 0 0 1 20.708 7.293L16.707 3.293zM15.292 4.707L19.293 8.707A3 3 0 0 1 15.292 4.706zM18 1A5 5 0 1 0 18 11A5 5 0 0 0 18 1z" />
    <glyph glyph-name="mail-line"
      unicode="&#xE0B0;"
      horiz-adv-x="24" d="M3 21H21A1 1 0 0 0 22 20V4A1 1 0 0 0 21 3H3A1 1 0 0 0 2 4V20A1 1 0 0 0 3 21zM20 16.762L12.072 9.662L4 16.784V5H20V16.762zM4.511 19L12.061 12.338L19.502 19H4.511z" />
    <glyph glyph-name="mail-lock-fill"
      unicode="&#xE0B1;"
      horiz-adv-x="24" d="M22 12A5.002 5.002 0 0 1 14.1 9H13V3H3A1 1 0 0 0 2 4V20A1 1 0 0 0 3 21H21A1 1 0 0 0 22 20V12zM12.06 12.317L5.648 17.762L4.353 16.238L12.073 9.683L19.654 16.243L18.346 17.756L12.061 12.317zM22 7H23V2H15V7H16V8A3 3 0 0 0 22 8V7zM20 7V8A1 1 0 0 1 18 8V7H20z" />
    <glyph glyph-name="mail-lock-line"
      unicode="&#xE0B2;"
      horiz-adv-x="24" d="M20 16.762L12.072 9.662L4 16.784V5H13V3H3A1 1 0 0 0 2 4V20A1 1 0 0 0 3 21H21A1 1 0 0 0 22 20V13H20V16.762zM19.501 19H4.511L12.061 12.338L19.502 19zM22 7H23V2H15V7H16V8A3 3 0 0 0 22 8V7zM20 7V8A1 1 0 0 1 18 8V7H20z" />
    <glyph glyph-name="mail-open-fill"
      unicode="&#xE0B3;"
      horiz-adv-x="24" d="M2.243 17.146L11.49 22.69A1 1 0 0 0 12.519 22.69L21.757 17.145A0.5 0.5 0 0 0 22 16.716V4A1 1 0 0 0 21 3H3A1 1 0 0 0 2 4V16.717A0.5 0.5 0 0 0 2.243 17.146zM18.346 15.756L12.061 10.317L5.647 15.762L4.353 14.238L12.073 7.683L19.654 14.243L18.346 15.756z" />
    <glyph glyph-name="mail-open-line"
      unicode="&#xE0B4;"
      horiz-adv-x="24" d="M2.243 17.146L11.49 22.69A1 1 0 0 0 12.519 22.69L21.757 17.145A0.5 0.5 0 0 0 22 16.716V4A1 1 0 0 0 21 3H3A1 1 0 0 0 2 4V16.717A0.5 0.5 0 0 0 2.243 17.146zM4 15.867V5H20V15.868L12.004 20.668L4 15.868zM12.06 10.302L17.356 14.765L18.644 13.235L12.074 7.698L5.364 13.228L6.636 14.772L12.06 10.302z" />
    <glyph glyph-name="mail-send-fill"
      unicode="&#xE0B5;"
      horiz-adv-x="24" d="M2 18.5V20.007A1 1 0 0 0 2.992 21H21.008C21.556 21 22 20.555 22 20.007V3.993A1 1 0 0 0 21.008 3H2.992A0.993 0.993 0 0 0 2 3.993V5H20V16.7L12 9.5L2 18.5zM0 14H5V12H0V14zM0 9H8V7H0V9z" />
    <glyph glyph-name="mail-send-line"
      unicode="&#xE0B6;"
      horiz-adv-x="24" d="M22 3.993A1 1 0 0 0 21.008 3H2.992A0.993 0.993 0 0 0 2 3.993V5H20V16.7L12 9.5L2 18.5V20A1 1 0 0 0 3 21H21A1 1 0 0 0 22 20V3.993zM4.434 19L12 12.19L19.566 19H4.434zM0 9H8V7H0V9zM0 14H5V12H0V14z" />
    <glyph glyph-name="mail-settings-fill"
      unicode="&#xE0B7;"
      horiz-adv-x="24" d="M22 10.659A6 6 0 0 1 14.341 3H3A1 1 0 0 0 2 4V20A1 1 0 0 0 3 21H21A1 1 0 0 0 22 20V10.659zM12.06 12.317L5.648 17.762L4.353 16.238L12.073 9.683L19.654 16.243L18.346 17.756L12.061 12.317zM17.05 4.452A3.017 3.017 0 0 0 17.05 5.548L16.036 6.134L17.036 7.866L18.05 7.28C18.328 7.518 18.649 7.705 19 7.83V9H21V7.83C21.351 7.705 21.672 7.518 21.95 7.28L22.964 7.866L23.964 6.134L22.95 5.548A3.017 3.017 0 0 0 22.95 4.452L23.964 3.866L22.964 2.134L21.95 2.72A2.997 2.997 0 0 0 21 2.17V1H19V2.17A2.997 2.997 0 0 0 18.05 2.72L17.036 2.134L16.036 3.866L17.05 4.452zM20 4A1 1 0 1 1 20 6A1 1 0 0 1 20 4z" />
    <glyph glyph-name="mail-settings-line"
      unicode="&#xE0B8;"
      horiz-adv-x="24" d="M20 16.762L12.072 9.662L4 16.784V5H14V3H3A1 1 0 0 0 2 4V20A1 1 0 0 0 3 21H21A1 1 0 0 0 22 20V11H20V16.762zM19.501 19H4.511L12.061 12.338L19.502 19zM17.05 4.452A3.017 3.017 0 0 0 17.05 5.548L16.036 6.134L17.036 7.866L18.05 7.28C18.328 7.518 18.649 7.705 19 7.83V9H21V7.83C21.351 7.705 21.672 7.518 21.95 7.28L22.964 7.866L23.964 6.134L22.95 5.548A3.017 3.017 0 0 0 22.95 4.452L23.964 3.866L22.964 2.134L21.95 2.72A2.997 2.997 0 0 0 21 2.17V1H19V2.17A2.997 2.997 0 0 0 18.05 2.72L17.036 2.134L16.036 3.866L17.05 4.452zM20 4A1 1 0 1 1 20 6A1 1 0 0 1 20 4z" />
    <glyph glyph-name="mail-star-fill"
      unicode="&#xE0B9;"
      horiz-adv-x="24" d="M22 9.956A6 6 0 0 1 13.689 3H3A1 1 0 0 0 2 4V20A1 1 0 0 0 3 21H21A1 1 0 0 0 22 20V9.956zM12.06 12.317L5.648 17.762L4.353 16.238L12.073 9.683L19.654 16.243L18.346 17.756L12.061 12.317zM19.5 2.25L16.855 0.86L17.36 3.805L15.22 5.891L18.177 6.321L19.5 9L20.823 6.32L23.78 5.89L21.64 3.805L22.145 0.859L19.5 2.25z" />
    <glyph glyph-name="mail-star-line"
      unicode="&#xE0BA;"
      horiz-adv-x="24" d="M22 11H20V16.762L12.072 9.662L4 16.784V5H14V3H3A1 1 0 0 0 2 4V20A1 1 0 0 0 3 21H21A1 1 0 0 0 22 20V11zM4.511 19L12.061 12.338L19.502 19H4.511zM19.5 2.25L16.855 0.86L17.36 3.805L15.22 5.891L18.177 6.321L19.5 9L20.823 6.32L23.78 5.89L21.64 3.805L22.145 0.859L19.5 2.25z" />
    <glyph glyph-name="mail-unread-fill"
      unicode="&#xE0BB;"
      horiz-adv-x="24" d="M18.803 15.507A5.023 5.023 0 0 1 22 15.1V4A1 1 0 0 0 21 3H3A1 1 0 0 0 2 4V20A1 1 0 0 0 3 21H16.1C16.034 20.677 16 20.342 16 20A4.98 4.98 0 0 1 17.193 16.759L12.061 12.317L5.647 17.762L4.353 16.238L12.073 9.683L18.803 15.507zM21 17A3 3 0 1 0 21 23A3 3 0 0 0 21 17z" />
    <glyph glyph-name="mail-unread-line"
      unicode="&#xE0BC;"
      horiz-adv-x="24" d="M16.1 21A5.023 5.023 0 0 1 16.1 19H4.511L12.061 12.338L17.11 16.858C17.536 16.331 18.068 15.892 18.673 15.573L12.072 9.662L4 16.784V5H20V15.1A5.023 5.023 0 0 1 22 15.1V4A1 1 0 0 0 21 3H3A1 1 0 0 0 2 4V20A1 1 0 0 0 3 21H16.1zM21 17A3 3 0 1 0 21 23A3 3 0 0 0 21 17z" />
    <glyph glyph-name="pie-chart-2-fill"
      unicode="&#xE0BD;"
      horiz-adv-x="24" d="M11 21.95V11H21.95C21.449 5.947 17.185 2 12 2C6.477 2 2 6.477 2 12C2 17.185 5.947 21.449 11 21.95zM13 23.457C18.553 22.98 22.979 18.553 23.457 13H13V23.457z" />
    <glyph glyph-name="pie-chart-2-line"
      unicode="&#xE0BE;"
      horiz-adv-x="24" d="M11 23.457C11.33 23.486 11.663 23.5 12 23.5C18.351 23.5 23.5 18.351 23.5 12C23.5 11.663 23.486 11.33 23.457 11H21.951C21.449 5.947 17.185 2 12 2C6.477 2 2 6.477 2 12C2 17.185 5.947 21.449 11 21.95V23.458zM11 11V19.938A8.001 8.001 0 0 1 12 4A8.001 8.001 0 0 1 19.938 11H11zM21.448 13A9.503 9.503 0 0 1 13 21.448V13H21.448z" />
    <glyph glyph-name="pie-chart-box-fill"
      unicode="&#xE0BF;"
      horiz-adv-x="24" d="M3 21H21A1 1 0 0 0 22 20V4A1 1 0 0 0 21 3H3A1 1 0 0 0 2 4V20A1 1 0 0 0 3 21zM16.9 11H11V16.9A5.002 5.002 0 0 1 12 7A5.002 5.002 0 0 1 16.9 11zM16.9 13A5.006 5.006 0 0 1 13 16.9V13H16.9z" />
    <glyph glyph-name="pie-chart-box-line"
      unicode="&#xE0C0;"
      horiz-adv-x="24" d="M3 21H21A1 1 0 0 0 22 20V4A1 1 0 0 0 21 3H3A1 1 0 0 0 2 4V20A1 1 0 0 0 3 21zM4 19V5H20V19H4zM16.9 11A5.002 5.002 0 0 0 7 12A5.002 5.002 0 0 0 11 16.9V11H16.9zM16.9 13H13V16.9A5.006 5.006 0 0 0 16.9 13z" />
    <glyph glyph-name="pie-chart-fill"
      unicode="&#xE0C1;"
      horiz-adv-x="24" d="M11 21.95V11H21.95C21.449 5.947 17.185 2 12 2C6.477 2 2 6.477 2 12C2 17.185 5.947 21.449 11 21.95zM13 21.95A10.003 10.003 0 0 0 21.95 13H13V21.95z" />
    <glyph glyph-name="pie-chart-line"
      unicode="&#xE0C2;"
      horiz-adv-x="24" d="M12 2C6.477 2 2 6.477 2 12C2 16.478 4.943 20.268 9 21.542V19.418A8.003 8.003 0 0 1 12 4A8.003 8.003 0 0 1 19.418 9H21.542C20.268 4.943 16.478 2 12 2zM21.95 11H11V21.95C11.329 21.983 11.663 22 12 22C17.523 22 22 17.523 22 12C22 11.663 21.983 11.329 21.95 11zM13 19.938V13H19.938A8.004 8.004 0 0 1 13 19.938z" />
    <glyph glyph-name="printer-fill"
      unicode="&#xE0C3;"
      horiz-adv-x="24" d="M7 7H17V2H7V7zM19 4V9H5V4H3A1 1 0 0 0 2 5V15A1 1 0 0 0 3 16H21A1 1 0 0 0 22 15V5A1 1 0 0 0 21 4H19zM5 14V12H8V14H5zM7 22H17A1 1 0 0 0 18 21V18H6V21A1 1 0 0 0 7 22z" />
    <glyph glyph-name="printer-line"
      unicode="&#xE0C4;"
      horiz-adv-x="24" d="M6 5H3A1 1 0 0 0 2 6V16A1 1 0 0 0 3 17H6V21A1 1 0 0 0 7 22H17A1 1 0 0 0 18 21V17H21A1 1 0 0 0 22 16V6A1 1 0 0 0 21 5H18V3A1 1 0 0 0 17 2H7A1 1 0 0 0 6 3V5zM6 7V8A1 1 0 0 0 7 9H17A1 1 0 0 0 18 8V7H20V15H4V7H6zM8 20V17H16V20H8zM8 7V4H16V7H8zM5 14H8V12H5V14z" />
    <glyph glyph-name="profile-fill"
      unicode="&#xE0C5;"
      horiz-adv-x="24" d="M2 20.007A1 1 0 0 0 2.992 21H21.008C21.556 21 22 20.555 22 20.007V3.993A1 1 0 0 0 21.008 3H2.992A0.993 0.993 0 0 0 2 3.993V20.007zM6 9V7H18V9H6zM6 17V11H12V17H6zM14 17V15H18V17H14zM14 13V11H18V13H14zM8 15H10V13H8V15z" />
    <glyph glyph-name="profile-line"
      unicode="&#xE0C6;"
      horiz-adv-x="24" d="M2 20.007A1 1 0 0 0 2.992 21H21.008C21.556 21 22 20.555 22 20.007V3.993A1 1 0 0 0 21.008 3H2.992A0.993 0.993 0 0 0 2 3.993V20.007zM4 19V5H20V19H4zM6 17H12V11H6V17zM8 15V13H10V15H8zM6 9H18V7H6V9zM14 17H18V15H14V17zM14 13H18V11H14V13z" />
    <glyph glyph-name="projector-2-fill"
      unicode="&#xE0C7;"
      horiz-adv-x="24" d="M22 5V3H20V5H4V3H2V5A1 1 0 0 0 1 6V18A1 1 0 0 0 2 19H11.81A6.481 6.481 0 0 0 16.5 21C18.343 21 20.007 20.233 21.19 19H22A1 1 0 0 0 23 18V6A1 1 0 0 0 22 5zM16.5 10A4.5 4.5 0 1 1 16.5 19A4.5 4.5 0 0 1 16.5 10zM16.5 12A2.5 2.5 0 1 0 16.5 17A2.5 2.5 0 0 0 16.5 12zM4 11V9H6V11H4zM8 11V9H10V11H8z" />
    <glyph glyph-name="projector-2-line"
      unicode="&#xE0C8;"
      horiz-adv-x="24" d="M22 5V3H20V5H4V3H2V5A1 1 0 0 0 1 6V18A1 1 0 0 0 2 19H12.528A5.985 5.985 0 0 0 17 21C18.777 21 20.374 20.227 21.472 19H22A1 1 0 0 0 23 18V6A1 1 0 0 0 22 5zM11.341 17H3V7H21V10.528A6 6 0 0 0 11.341 17zM17 11A4 4 0 1 1 17 19A4 4 0 0 1 17 11zM5 11H7V9H5V11zM8 11H10V9H8V11z" />
    <glyph glyph-name="projector-fill"
      unicode="&#xE0C9;"
      horiz-adv-x="24" d="M11.112 12A4.502 4.502 0 0 1 19.888 12H22V4A1 1 0 0 0 21 3H3A1 1 0 0 0 2 4V12H11.112zM5 8H7V6H5V8zM15.5 10.5A2.5 2.5 0 1 0 15.5 15.5A2.5 2.5 0 0 0 15.5 10.5zM11.112 14H2V20A1 1 0 0 0 3 21H21A1 1 0 0 0 22 20V14H19.888A4.502 4.502 0 0 1 11.112 14z" />
    <glyph glyph-name="projector-line"
      unicode="&#xE0CA;"
      horiz-adv-x="24" d="M3 21H21A1 1 0 0 0 22 20V4A1 1 0 0 0 21 3H3A1 1 0 0 0 2 4V20A1 1 0 0 0 3 21zM11.126 12H4V5H20V12H18.874A4.002 4.002 0 0 0 11.126 12zM11.126 14A4.002 4.002 0 0 0 18.874 14H20V19H4V14H11.126zM15 11A2 2 0 1 1 15 15A2 2 0 0 1 15 11zM6 9H8V7H6V9z" />
    <glyph glyph-name="record-mail-fill"
      unicode="&#xE0CB;"
      horiz-adv-x="24" d="M9.743 9H14.257A5.5 5.5 0 1 0 18.5 7H5.5A5.5 5.5 0 1 0 9.743 9zM5.5 11A1.5 1.5 0 1 1 5.5 14A1.5 1.5 0 0 1 5.5 11zM18.5 11A1.5 1.5 0 1 1 18.5 14A1.5 1.5 0 0 1 18.5 11z" />
    <glyph glyph-name="record-mail-line"
      unicode="&#xE0CC;"
      horiz-adv-x="24" d="M14.257 9A5.5 5.5 0 1 0 18.5 7H5.5A5.5 5.5 0 1 0 9.743 9H14.257zM5.5 9A3.5 3.5 0 1 1 5.5 16A3.5 3.5 0 0 1 5.5 9zM18.5 9A3.5 3.5 0 1 1 18.5 16A3.5 3.5 0 0 1 18.5 9z" />
    <glyph glyph-name="reply-fill"
      unicode="&#xE0CD;"
      horiz-adv-x="24" d="M11 10V5L1 13L11 21V16C16.523 16 21 11.523 21 6C21 5.727 20.99 5.457 20.968 5.19A8.999 8.999 0 0 1 13 10H11z" />
    <glyph glyph-name="reply-line"
      unicode="&#xE0CE;"
      horiz-adv-x="24" d="M12 10V4.5L1.5 13L12 21.5V16C17.523 16 22 11.523 22 6C22 5.727 21.99 5.457 21.968 5.19A8.999 8.999 0 0 1 14 10H12zM10 8.692V12H14C15.42 12 16.791 11.729 18.057 11.227A7.982 7.982 0 0 1 12 14H10V17.308L4.679 13L10 8.692z" />
    <glyph glyph-name="send-plane-2-fill"
      unicode="&#xE0CF;"
      horiz-adv-x="24" d="M3 11H9V13H3V22.154A0.5 0.5 0 0 0 3.741 22.592L22.203 12.438A0.5 0.5 0 0 0 22.203 11.562L3.741 1.408A0.5 0.5 0 0 0 3 1.846V11z" />
    <glyph glyph-name="send-plane-2-line"
      unicode="&#xE0D0;"
      horiz-adv-x="24" d="M3.741 22.592L22.203 12.438A0.5 0.5 0 0 0 22.203 11.562L3.741 1.408A0.5 0.5 0 0 0 3 1.846V22.154A0.5 0.5 0 0 0 3.741 22.592zM5 11V4.383L18.85 12L5 19.617V13H10V11H5z" />
    <glyph glyph-name="send-plane-fill"
      unicode="&#xE0D1;"
      horiz-adv-x="24" d="M1.946 14.685C1.424 14.859 1.419 15.14 1.956 15.319L21.043 21.681C21.572 21.857 21.875 21.561 21.727 21.043L16.273 1.957C16.123 1.428 15.818 1.41 15.594 1.912L12 10L18 18L10 12L1.946 14.685z" />
    <glyph glyph-name="send-plane-line"
      unicode="&#xE0D2;"
      horiz-adv-x="24" d="M1.923 14.63C1.413 14.835 1.419 15.14 1.957 15.319L21.043 21.681C21.572 21.857 21.875 21.561 21.727 21.043L16.273 1.957C16.123 1.428 15.798 1.404 15.556 1.887L11 11L1.923 14.63zM6.813 14.83L12.449 12.575L15.489 6.493L19.035 18.903L6.812 14.83z" />
    <glyph glyph-name="slideshow-2-fill"
      unicode="&#xE0D3;"
      horiz-adv-x="24" d="M13 7V4H18V2H6V4H11V7H4A1 1 0 0 0 3 8V20H2V22H22V20H21V8A1 1 0 0 0 20 7H13zM10 18V11L15 14.5L10 18z" />
    <glyph glyph-name="slideshow-2-line"
      unicode="&#xE0D4;"
      horiz-adv-x="24" d="M13 7V4H18V2H6V4H11V7H4A1 1 0 0 0 3 8V20H2V22H22V20H21V8A1 1 0 0 0 20 7H13zM5 9H19V20H5V9zM10 18L15 14.5L10 11V18z" />
    <glyph glyph-name="slideshow-3-fill"
      unicode="&#xE0D5;"
      horiz-adv-x="24" d="M13 6V4H17V2H7V4H11V6H3A1 1 0 0 0 2 7V20A1 1 0 0 0 3 21H21A1 1 0 0 0 22 20V7A1 1 0 0 0 21 6H13zM10 16.5V10.5L15 13.5L10 16.5z" />
    <glyph glyph-name="slideshow-3-line"
      unicode="&#xE0D6;"
      horiz-adv-x="24" d="M13 6V4H17V2H7V4H11V6H3A1 1 0 0 0 2 7V20A1 1 0 0 0 3 21H21A1 1 0 0 0 22 20V7A1 1 0 0 0 21 6H13zM4 19V8H20V19H4zM10 16.5L15 13.5L10 10.5V16.5z" />
    <glyph glyph-name="slideshow-4-fill"
      unicode="&#xE0D7;"
      horiz-adv-x="24" d="M8.17 21A3.001 3.001 0 0 0 11 23H13C14.306 23 15.417 22.165 15.83 21H21A1 1 0 0 0 22 20V4A1 1 0 0 0 21 3H3A1 1 0 0 0 2 4V20A1 1 0 0 0 3 21H8.17zM10 15V9L15 12L10 15zM11 21A1 1 0 0 1 11 19H13A1 1 0 0 1 13 21H11z" />
    <glyph glyph-name="slideshow-4-line"
      unicode="&#xE0D8;"
      horiz-adv-x="24" d="M8.17 21A3.001 3.001 0 0 0 11 23H13C14.306 23 15.417 22.165 15.83 21H21A1 1 0 0 0 22 20V4A1 1 0 0 0 21 3H3A1 1 0 0 0 2 4V20A1 1 0 0 0 3 21H8.17zM4 19V5H20V19H15.83A3.001 3.001 0 0 0 13 17H11A3.001 3.001 0 0 0 8.17 19H4zM11 21A1 1 0 0 1 11 19H13A1 1 0 0 1 13 21H11zM10 15L15 12L10 9V15z" />
    <glyph glyph-name="slideshow-fill"
      unicode="&#xE0D9;"
      horiz-adv-x="24" d="M13 3V1H11V3H3A1 1 0 0 0 2 4V18H22V4A1 1 0 0 0 21 3H13zM8 14A3 3 0 1 1 11 11H8V14zM13 14V12H19V14H13zM13 10V8H19V10H13zM2 21H22V19H2V21z" />
    <glyph glyph-name="slideshow-line"
      unicode="&#xE0DA;"
      horiz-adv-x="24" d="M13 3V1H11V3H3A1 1 0 0 0 2 4V18H22V4A1 1 0 0 0 21 3H13zM4 5H20V16H4V5zM13 14H18V12H13V14zM13 10H18V8H13V10zM9 14V11H12A3 3 0 1 0 9 14zM2 21H22V19H2V21z" />
    <glyph glyph-name="stack-fill"
      unicode="&#xE0DB;"
      horiz-adv-x="24" d="M20.083 13.5L21.285 12.779A0.5 0.5 0 0 0 21.285 11.921L12 6.35L2.715 11.921A0.5 0.5 0 0 0 2.715 12.779L3.917 13.5L12 8.65L20.083 13.5zM20.083 8.8L21.285 8.079A0.5 0.5 0 0 0 21.285 7.221L12.515 1.959A1 1 0 0 0 11.485 1.959L2.715 7.221A0.5 0.5 0 0 0 2.715 8.079L3.917 8.8L12 3.95L20.083 8.8zM12.514 22.691L21.285 17.429A0.5 0.5 0 0 0 21.285 16.571L12 11L2.715 16.571A0.5 0.5 0 0 0 2.715 17.429L11.485 22.691A1 1 0 0 0 12.515 22.691z" />
    <glyph glyph-name="stack-line"
      unicode="&#xE0DC;"
      horiz-adv-x="24" d="M20.083 8.8L21.285 8.079A0.5 0.5 0 0 0 21.285 7.221L12.515 1.959A1 1 0 0 0 11.485 1.959L2.715 7.221A0.5 0.5 0 0 0 2.715 8.079L3.917 8.8L12 3.95L20.083 8.8zM20.083 13.5L21.285 12.779A0.5 0.5 0 0 0 21.285 11.921L12 6.35L2.715 11.921A0.5 0.5 0 0 0 2.715 12.779L3.917 13.5L12 8.65L20.083 13.5zM12.514 22.691L21.285 17.429A0.5 0.5 0 0 0 21.285 16.571L12 11L2.715 16.571A0.5 0.5 0 0 0 2.715 17.429L11.485 22.691A1 1 0 0 0 12.515 22.691zM12 20.668L5.887 17L12 13.332L18.113 17L12 20.668z" />
    <glyph glyph-name="window-2-fill"
      unicode="&#xE0DD;"
      horiz-adv-x="24" d="M3 21H21A1 1 0 0 0 22 20V4A1 1 0 0 0 21 3H3A1 1 0 0 0 2 4V20A1 1 0 0 0 3 21zM20 14H4V5H20V14zM15 18V16H19V18H15z" />
    <glyph glyph-name="window-2-line"
      unicode="&#xE0DE;"
      horiz-adv-x="24" d="M3 21H21A1 1 0 0 0 22 20V4A1 1 0 0 0 21 3H3A1 1 0 0 0 2 4V20A1 1 0 0 0 3 21zM20 13H4V5H20V13zM20 15V19H4V15H20zM15 18H19V16H15V18z" />
    <glyph glyph-name="window-fill"
      unicode="&#xE0DF;"
      horiz-adv-x="24" d="M3 21H21A1 1 0 0 0 22 20V4A1 1 0 0 0 21 3H3A1 1 0 0 0 2 4V20A1 1 0 0 0 3 21zM20 14H4V5H20V14zM5 18V16H7V18H5zM9 18V16H11V18H9z" />
    <glyph glyph-name="window-line"
      unicode="&#xE0E0;"
      horiz-adv-x="24" d="M3 21H21A1 1 0 0 0 22 20V4A1 1 0 0 0 21 3H3A1 1 0 0 0 2 4V20A1 1 0 0 0 3 21zM20 13H4V5H20V13zM20 15V19H4V15H20zM9 18H11V16H9V18zM5 18H7V16H5V18z" />
    <glyph glyph-name="anticlockwise-2-fill"
      unicode="&#xE0E1;"
      horiz-adv-x="24" d="M14 20H16A5 5 0 0 0 21 15V11H19V15A3 3 0 0 1 16 18H14V15L9 19L14 23V20zM15 13V3A1 1 0 0 0 14 2H4A1 1 0 0 0 3 3V13A1 1 0 0 0 4 14H14A1 1 0 0 0 15 13z" />
    <glyph glyph-name="anticlockwise-2-line"
      unicode="&#xE0E2;"
      horiz-adv-x="24" d="M13.414 18L15.243 16.172L13.828 14.757L9.586 19L13.828 23.243L15.243 21.828L13.414 20H16A5 5 0 0 0 21 15V11H19V15A3 3 0 0 1 16 18H13.414zM15 13V3A1 1 0 0 0 14 2H4A1 1 0 0 0 3 3V13A1 1 0 0 0 4 14H14A1 1 0 0 0 15 13zM13 12H5V4H13V12z" />
    <glyph glyph-name="anticlockwise-fill"
      unicode="&#xE0E3;"
      horiz-adv-x="24" d="M6 14H9L5 9L1 14H4V16A5 5 0 0 0 9 21H13V19H9A3 3 0 0 1 6 16V14zM11 15H21A1 1 0 0 0 22 14V4A1 1 0 0 0 21 3H11A1 1 0 0 0 10 4V14A1 1 0 0 0 11 15z" />
    <glyph glyph-name="anticlockwise-line"
      unicode="&#xE0E4;"
      horiz-adv-x="24" d="M11 15H21A1 1 0 0 0 22 14V4A1 1 0 0 0 21 3H11A1 1 0 0 0 10 4V14A1 1 0 0 0 11 15zM12 13V5H20V13H12zM6 13.414L7.828 15.243L9.243 13.828L5 9.586L0.757 13.828L2.172 15.243L4 13.414V16A5 5 0 0 0 9 21H13V19H9A3 3 0 0 1 6 16V13.414z" />
    <glyph glyph-name="artboard-2-fill"
      unicode="&#xE0E5;"
      horiz-adv-x="24" d="M6 18H18V6H6V18zM6 22H8V19H6V22zM6 5H8V2H6V5zM2 18H5V16H2V18zM2 8H5V6H2V8zM19 18H22V16H19V18zM19 8H22V6H19V8zM16 22H18V19H16V22zM16 5H18V2H16V5z" />
    <glyph glyph-name="artboard-2-line"
      unicode="&#xE0E6;"
      horiz-adv-x="24" d="M8 16V8H16V16H8zM6 18H18V6H6V18zM6 22H8V19H6V22zM6 5H8V2H6V5zM2 18H5V16H2V18zM2 8H5V6H2V8zM19 18H22V16H19V18zM19 8H22V6H19V8zM16 22H18V19H16V22zM16 5H18V2H16V5z" />
    <glyph glyph-name="artboard-fill"
      unicode="&#xE0E7;"
      horiz-adv-x="24" d="M8.586 7H3V9H21V7H15.414L18.657 3.757L17.243 2.343L13 6.586V4H11V6.586L6.757 2.343L5.343 3.757L8.586 7zM5 21H19A1 1 0 0 0 20 20V10H4V20A1 1 0 0 0 5 21z" />
    <glyph glyph-name="artboard-line"
      unicode="&#xE0E8;"
      horiz-adv-x="24" d="M8.586 7H3V9H21V7H15.414L18.657 3.757L17.243 2.343L13 6.586V4H11V6.586L6.757 2.343L5.343 3.757L8.586 7zM5 21H19A1 1 0 0 0 20 20V10H4V20A1 1 0 0 0 5 21zM6 19V12H18V19H6z" />
    <glyph glyph-name="ball-pen-fill"
      unicode="&#xE0E9;"
      horiz-adv-x="24" d="M17.849 12.192L17.142 12.899L7.242 2.999H3V7.242L14.313 18.556L19.97 12.899A1 1 0 0 0 19.97 11.485L12.9 4.414L11.485 5.828L17.849 12.192zM18.556 21.384L21.385 18.556A1 1 0 0 0 21.385 17.142L19.97 15.727L15.728 19.97L17.142 21.384A1 1 0 0 0 18.556 21.384z" />
    <glyph glyph-name="ball-pen-line"
      unicode="&#xE0EA;"
      horiz-adv-x="24" d="M17.849 12.192L17.142 12.899L7.242 2.999H3V7.242L14.313 18.556L19.97 12.899A1 1 0 0 0 19.97 11.485L12.9 4.414L11.485 5.828L17.849 12.192zM15.728 14.313L14.313 15.727L5 6.414V4.999H6.414L15.728 14.313zM18.556 21.384L21.385 18.556A1 1 0 0 0 21.385 17.142L19.97 15.727L15.728 19.97L17.142 21.384A1 1 0 0 0 18.556 21.384z" />
    <glyph glyph-name="blur-off-fill"
      unicode="&#xE0EB;"
      horiz-adv-x="24" d="M5.432 17.154L1.393 21.192L2.808 22.607L22.607 2.807L21.192 1.393L18.154 4.433A9 9 0 0 0 5.432 17.152zM8.243 19.97L12 23.728L18.364 17.364A9.002 9.002 0 0 0 20.414 7.8L8.244 19.97z" />
    <glyph glyph-name="blur-off-line"
      unicode="&#xE0EC;"
      horiz-adv-x="24" d="M18.154 4.432A9 9 0 0 0 5.432 17.154L1.393 21.192L2.808 22.607L22.607 2.807L21.192 1.393L18.154 4.433zM6.847 15.738A7 7 0 0 1 16.738 5.848L6.848 15.738zM20.414 7.8L18.815 9.399A6.995 6.995 0 0 1 16.95 15.949L12 20.9L9.657 18.557L8.243 19.97L12 23.728L18.364 17.364A9.002 9.002 0 0 0 20.414 7.8z" />
    <glyph glyph-name="brush-2-fill"
      unicode="&#xE0ED;"
      horiz-adv-x="24" d="M16.536 8.05L18.656 10.172L15.475 13.354L19.01 16.889L16.89 19.01L13.354 15.475L10.172 18.657L8.05 16.536L16.536 8.05zM13.354 18.303L16.182 21.132A1 1 0 0 0 17.596 21.132L21.132 17.596A1 1 0 0 0 21.132 16.182L18.303 13.354L20.778 10.879A1 1 0 0 0 20.778 9.464L13 1.686A1 1 0 0 0 11.586 1.686L1.686 11.586A1 1 0 0 0 1.686 13L9.464 20.778A1 1 0 0 0 10.879 20.778L13.354 18.303z" />
    <glyph glyph-name="brush-2-line"
      unicode="&#xE0EE;"
      horiz-adv-x="24" d="M16.536 8.05L18.656 10.172L15.475 13.354L19.01 16.889L16.89 19.01L13.354 15.475L10.172 18.657L8.05 16.536L16.536 8.05zM15.121 6.636L6.636 15.121L3.808 12.293L12.293 3.808L15.121 6.636zM13.354 18.303L16.182 21.132A1 1 0 0 0 17.596 21.132L21.132 17.596A1 1 0 0 0 21.132 16.182L18.303 13.354L20.778 10.879A1 1 0 0 0 20.778 9.464L13 1.686A1 1 0 0 0 11.586 1.686L1.686 11.586A1 1 0 0 0 1.686 13L9.464 20.778A1 1 0 0 0 10.879 20.778L13.354 18.303z" />
    <glyph glyph-name="brush-3-fill"
      unicode="&#xE0EF;"
      horiz-adv-x="24" d="M20 13V16H14V20H10V16H4V13H20zM21 11V3A1 1 0 0 0 20 2H10V8H8V2H4A1 1 0 0 0 3 3V11H2V17A1 1 0 0 0 3 18H8V21A1 1 0 0 0 9 22H15A1 1 0 0 0 16 21V18H21A1 1 0 0 0 22 17V11H21z" />
    <glyph glyph-name="brush-3-line"
      unicode="&#xE0F0;"
      horiz-adv-x="24" d="M8 4V9H10V4H19V11H5V4H8zM4 13H20V16H14V20H10V16H4V13zM3 3V11H2V17A1 1 0 0 0 3 18H8V21A1 1 0 0 0 9 22H15A1 1 0 0 0 16 21V18H21A1 1 0 0 0 22 17V11H21V3A1 1 0 0 0 20 2H4A1 1 0 0 0 3 3z" />
    <glyph glyph-name="brush-4-fill"
      unicode="&#xE0F1;"
      horiz-adv-x="24" d="M20 8H4V6H20V8zM3 10V20A1 1 0 0 0 4 21H7V12.727H9V21H20A1 1 0 0 0 21 20V10H22V5A1 1 0 0 0 21 4H13V1H11V4H3A1 1 0 0 0 2 5V10H3z" />
    <glyph glyph-name="brush-4-line"
      unicode="&#xE0F2;"
      horiz-adv-x="24" d="M9 19V12.727H7V19H5V10H19V19H9zM20 8H4V6H20V8zM3 10V20A1 1 0 0 0 4 21H20A1 1 0 0 0 21 20V10H22V5A1 1 0 0 0 21 4H13V1H11V4H3A1 1 0 0 0 2 5V10H3z" />
    <glyph glyph-name="brush-fill"
      unicode="&#xE0F3;"
      horiz-adv-x="24" d="M13.289 17.784L18.228 21.625A1 1 0 0 0 19.548 21.543L22.543 18.549A1 1 0 0 0 22.625 17.228L18.785 12.29A7.505 7.505 0 0 0 11.502 2.998C8 2.998 3.5 4.5 1 6C4.98 9 4.047 10.81 4.5 12.5C5.558 16.45 9.342 18.757 13.289 17.784zM16.702 15.905C16.767 15.842 16.832 15.777 16.895 15.711L18.03 14.577L20.505 17.759L18.759 19.505L15.577 17.03L16.702 15.905z" />
    <glyph glyph-name="brush-line"
      unicode="&#xE0F4;"
      horiz-adv-x="24" d="M15.456 14.322L15.314 14.464A5.475 5.475 0 0 1 12.924 15.813C10.017 16.591 7.225 14.944 6.432 11.983C6.389 11.823 6.366 11.643 6.328 11.192C6.174 9.322 5.734 7.927 4.528 6.512C6.788 5.624 9.466 4.998 11.502 4.998A5.505 5.505 0 0 1 16.812 9.076A5.497 5.497 0 0 1 15.456 14.322zM13.29 17.784L18.229 21.625A1 1 0 0 0 19.549 21.543L22.544 18.549A1 1 0 0 0 22.626 17.228L18.786 12.29A7.505 7.505 0 0 0 11.503 2.998C8 2.998 3.5 4.5 1 6C4.98 9 4.047 10.81 4.5 12.5C5.558 16.45 9.342 18.757 13.289 17.784zM16.703 15.905C16.768 15.842 16.833 15.777 16.896 15.711L18.031 14.577L20.506 17.759L18.76 19.505L15.578 17.03L16.703 15.905z" />
    <glyph glyph-name="clockwise-2-fill"
      unicode="&#xE0F5;"
      horiz-adv-x="24" d="M10 20V23L15 19L10 15V18H8A3 3 0 0 1 5 15V11H3V15A5 5 0 0 0 8 20H10zM9 13A1 1 0 0 0 10 14H20A1 1 0 0 0 21 13V3A1 1 0 0 0 20 2H10A1 1 0 0 0 9 3V13z" />
    <glyph glyph-name="clockwise-2-line"
      unicode="&#xE0F6;"
      horiz-adv-x="24" d="M10.586 20L8.757 21.828L10.172 23.243L14.414 19L10.172 14.757L8.757 16.172L10.586 18H8A3 3 0 0 1 5 15V11H3V15A5 5 0 0 0 8 20H10.586zM9 13A1 1 0 0 0 10 14H20A1 1 0 0 0 21 13V3A1 1 0 0 0 20 2H10A1 1 0 0 0 9 3V13zM11 12V4H19V12H11z" />
    <glyph glyph-name="clockwise-fill"
      unicode="&#xE0F7;"
      horiz-adv-x="24" d="M20 14H23L19 9L15 14H18V16A3 3 0 0 1 15 19H11V21H15A5 5 0 0 0 20 16V14zM13 15A1 1 0 0 0 14 14V4A1 1 0 0 0 13 3H3A1 1 0 0 0 2 4V14A1 1 0 0 0 3 15H13z" />
    <glyph glyph-name="clockwise-line"
      unicode="&#xE0F8;"
      horiz-adv-x="24" d="M20 13.414L21.828 15.243L23.243 13.828L19 9.586L14.757 13.828L16.172 15.243L18 13.414V16A3 3 0 0 1 15 19H11V21H15A5 5 0 0 0 20 16V13.414zM13 15A1 1 0 0 0 14 14V4A1 1 0 0 0 13 3H3A1 1 0 0 0 2 4V14A1 1 0 0 0 3 15H13zM12 13H4V5H12V13z" />
    <glyph glyph-name="compasses-2-fill"
      unicode="&#xE0F9;"
      horiz-adv-x="24" d="M16.33 10.5A6.988 6.988 0 0 1 19 16H21A8.987 8.987 0 0 0 17.338 8.754L19.866 4.376A2 2 0 0 0 19.134 1.644L15.607 7.752A8.97 8.97 0 0 0 12 7A8.97 8.97 0 0 0 8.393 7.752L4.866 1.644A2 2 0 0 0 4.134 4.376L9.197 13.146A4.002 4.002 0 0 0 11 19.874V22H13V19.874A4.002 4.002 0 0 0 14.803 13.146L16.33 10.5zM14.6 9.498L13.072 12.145A4.004 4.004 0 0 0 10.93 12.145L9.402 9.498C10.206 9.177 11.082 9 12.001 9C12.919 9 13.796 9.177 14.6 9.498zM12 15A1 1 0 1 1 12 17A1 1 0 0 1 12 15z" />
    <glyph glyph-name="compasses-2-line"
      unicode="&#xE0FA;"
      horiz-adv-x="24" d="M16.33 10.5A6.988 6.988 0 0 1 19 16H21A8.987 8.987 0 0 0 17.338 8.754L19.866 4.376A2 2 0 0 0 19.134 1.644L15.607 7.752A8.97 8.97 0 0 0 12 7A8.97 8.97 0 0 0 8.393 7.752L4.866 1.644A2 2 0 0 0 4.134 4.376L9.197 13.146A4.002 4.002 0 0 0 11 19.874V22H13V19.874A4.002 4.002 0 0 0 14.803 13.146L16.33 10.5zM14.6 9.498L13.072 12.145A4.004 4.004 0 0 0 10.93 12.145L9.402 9.498C10.206 9.177 11.082 9 12.001 9C12.919 9 13.796 9.177 14.6 9.498zM12 14A2 2 0 1 1 12 18A2 2 0 0 1 12 14z" />
    <glyph glyph-name="compasses-fill"
      unicode="&#xE0FB;"
      horiz-adv-x="24" d="M11 19.874V22H13V19.874A4.002 4.002 0 0 0 14.803 13.146L20.866 2.644L19.134 1.644L13.071 12.145A4.004 4.004 0 0 0 10.929 12.145L4.866 1.644L3.134 2.644L9.197 13.146A4.002 4.002 0 0 0 11 19.874zM12 15A1 1 0 1 1 12 17A1 1 0 0 1 12 15z" />
    <glyph glyph-name="compasses-line"
      unicode="&#xE0FC;"
      horiz-adv-x="24" d="M11 19.874V22H13V19.874A4.002 4.002 0 0 0 14.803 13.146L20.866 2.644L19.134 1.644L13.071 12.145A4.004 4.004 0 0 0 10.929 12.145L4.866 1.644L3.134 2.644L9.197 13.146A4.002 4.002 0 0 0 11 19.874zM12 14A2 2 0 1 1 12 18A2 2 0 0 1 12 14z" />
    <glyph glyph-name="contrast-2-fill"
      unicode="&#xE0FD;"
      horiz-adv-x="24" d="M12 2C6.477 2 2 6.477 2 12S6.477 22 12 22S22 17.523 22 12S17.523 2 12 2zM5.329 7.575A8 8 0 1 1 16.425 18.672A8.997 8.997 0 0 0 14.121 9.879A8.997 8.997 0 0 0 5.329 7.575z" />
    <glyph glyph-name="contrast-2-line"
      unicode="&#xE0FE;"
      horiz-adv-x="24" d="M12 2C6.477 2 2 6.477 2 12S6.477 22 12 22S22 17.523 22 12S17.523 2 12 2zM12 4A8 8 0 1 1 12 20A8 8 0 0 1 12 4zM7 8.68A8.965 8.965 0 0 1 12.707 11.293A8.965 8.965 0 0 1 15.32 17A6 6 0 1 0 7 8.68z" />
    <glyph glyph-name="contrast-drop-2-fill"
      unicode="&#xE0FF;"
      horiz-adv-x="24" d="M5.636 17.364L12 23.728L18.364 17.364A9 9 0 1 0 5.636 17.364zM12 20.899L7.05 15.95A6.978 6.978 0 0 1 5 11H19A6.978 6.978 0 0 1 16.95 15.95L12 20.9z" />
    <glyph glyph-name="contrast-drop-2-line"
      unicode="&#xE100;"
      horiz-adv-x="24" d="M12 20.9L7.05 15.95A7 7 0 1 1 16.95 15.95L12 20.9zM12 23.728L18.364 17.364A9 9 0 1 0 5.636 17.364L12 23.728zM7 11H17A5 5 0 0 0 7 11z" />
    <glyph glyph-name="contrast-drop-fill"
      unicode="&#xE101;"
      horiz-adv-x="24" d="M5.636 17.364L12 23.728L18.364 17.364A9 9 0 1 0 5.636 17.364zM7.05 15.95A7 7 0 0 1 12.004 4L12 20.9L7.05 15.95z" />
    <glyph glyph-name="contrast-drop-line"
      unicode="&#xE102;"
      horiz-adv-x="24" d="M12 20.9L7.05 15.95A7 7 0 1 1 16.95 15.95L12 20.9zM12 23.728L18.364 17.364A9 9 0 1 0 5.636 17.364L12 23.728zM12 6V16A5 5 0 0 0 12 6z" />
    <glyph glyph-name="contrast-fill"
      unicode="&#xE103;"
      horiz-adv-x="24" d="M12 2C6.477 2 2 6.477 2 12S6.477 22 12 22S22 17.523 22 12S17.523 2 12 2zM12 4V20A8 8 0 1 1 12 4z" />
    <glyph glyph-name="contrast-line"
      unicode="&#xE104;"
      horiz-adv-x="24" d="M12 2C6.477 2 2 6.477 2 12S6.477 22 12 22S22 17.523 22 12S17.523 2 12 2zM12 4A8 8 0 1 1 12 20A8 8 0 0 1 12 4zM12 6V18A6 6 0 1 0 12 6z" />
    <glyph glyph-name="crop-2-fill"
      unicode="&#xE105;"
      horiz-adv-x="24" d="M17.586 19L20.142 21.556L21.556 20.142L19 17.586V7H22V5H19V2H17V17H9V19H17.586zM15 7V5H6A1 1 0 0 0 5 6V17H2V19H5V22H7V7H15zM9 15H15V9H9V15z" />
    <glyph glyph-name="crop-2-line"
      unicode="&#xE106;"
      horiz-adv-x="24" d="M8.414 7H15V5H6A1 1 0 0 0 5 6V17H2V19H5V22H7V8.414L15.586 17H9V19H17.586L20.142 21.556L21.556 20.142L19 17.586V7H22V5H19V2H17V15.586L8.414 7z" />
    <glyph glyph-name="crop-fill"
      unicode="&#xE107;"
      horiz-adv-x="24" d="M19 7H22V5H19V2H17V5H6A1 1 0 0 0 5 6V17H2V19H5V22H7V19H18A1 1 0 0 0 19 18V7z" />
    <glyph glyph-name="crop-line"
      unicode="&#xE108;"
      horiz-adv-x="24" d="M15 7V5H6A1 1 0 0 0 5 6V17H2V19H5V22H7V7H15zM17 2V17H9V19H18A1 1 0 0 0 19 18V7H22V5H19V2H17z" />
    <glyph glyph-name="drag-move-2-fill"
      unicode="&#xE109;"
      horiz-adv-x="24" d="M18 13V16L22 12L18 8V11H13V6H16L12 2L8 6H11V11H6V8L2 12L6 16V13H11V18H8L12 22L16 18H13V13z" />
    <glyph glyph-name="drag-move-2-line"
      unicode="&#xE10A;"
      horiz-adv-x="24" d="M11 13V18.172L9.172 16.343L7.757 17.757L12 22L16.243 17.757L14.828 16.343L13 18.172V13H18.172L16.343 14.828L17.757 16.243L22 12L17.757 7.757L16.343 9.172L18.172 11H13V5.828L14.828 7.657L16.243 6.243L12 2L7.757 6.243L9.172 7.657L11 5.828V11H5.828L7.657 9.172L6.243 7.757L2 12L6.243 16.243L7.657 14.828L5.828 13z" />
    <glyph glyph-name="drag-move-fill"
      unicode="&#xE10B;"
      horiz-adv-x="24" d="M12 2L8 6H16L12 2zM12 22L16 18H8L12 22zM12 10A2 2 0 1 0 12 14A2 2 0 0 0 12 10zM2 12L6 16V8L2 12zM22 12L18 8V16L22 12z" />
    <glyph glyph-name="drag-move-line"
      unicode="&#xE10C;"
      horiz-adv-x="24" d="M12 22L16.243 17.757L14.828 16.343L12 19.172L9.172 16.343L7.757 17.757L12 22zM2 12L6.243 16.243L7.657 14.828L4.828 12L7.657 9.172L6.243 7.757L2 12zM22 12L17.757 7.757L16.343 9.172L19.172 12L16.343 14.828L17.757 16.243L22 12zM12 10A2 2 0 1 0 12 14A2 2 0 0 0 12 10zM12 2L7.757 6.243L9.172 7.657L12 4.828L14.828 7.657L16.243 6.243L12 2z" />
    <glyph glyph-name="drop-fill"
      unicode="&#xE10D;"
      horiz-adv-x="24" d="M5.636 17.364L12 23.728L18.364 17.364A9 9 0 1 0 5.636 17.364z" />
    <glyph glyph-name="drop-line"
      unicode="&#xE10E;"
      horiz-adv-x="24" d="M12 20.9L7.05 15.95A7 7 0 1 1 16.95 15.95L12 20.9zM12 23.728L18.364 17.364A9 9 0 1 0 5.636 17.364L12 23.728z" />
    <glyph glyph-name="edit-2-fill"
      unicode="&#xE10F;"
      horiz-adv-x="24" d="M9.243 5H21V3H3V7.243L12.9 17.143L17.142 12.899L9.242 5zM14.313 18.556L16.435 20.678A1 1 0 0 0 17.849 20.678L20.678 17.849A1 1 0 0 0 20.678 16.435L18.556 14.314L14.314 18.556z" />
    <glyph glyph-name="edit-2-line"
      unicode="&#xE110;"
      horiz-adv-x="24" d="M5 5H6.414L15.728 14.314L14.314 15.728L5 6.414V5zM21 3H3V7.243L16.435 20.678A1 1 0 0 0 17.849 20.678L20.678 17.849A1 1 0 0 0 20.678 16.435L9.243 5H21V3zM15.728 17.142L17.142 15.728L18.556 17.142L17.142 18.556L15.728 17.142z" />
    <glyph glyph-name="edit-box-fill"
      unicode="&#xE111;"
      horiz-adv-x="24" d="M16.757 21L9.291 13.534L9.299 9.287L13.537 9.294L21 16.757V4A1 1 0 0 0 20 3H4A1 1 0 0 0 3 4V20A1 1 0 0 0 4 21H16.757zM20.485 21.9L21.9 20.484L12.708 11.292L11.296 11.289L11.294 12.706L20.485 21.9z" />
    <glyph glyph-name="edit-box-line"
      unicode="&#xE112;"
      horiz-adv-x="24" d="M16.757 21L14.757 19H5V5H19V14.757L21 16.757V4A1 1 0 0 0 20 3H4A1 1 0 0 0 3 4V20A1 1 0 0 0 4 21H16.757zM20.485 21.9L21.9 20.484L12.708 11.292L11.296 11.289L11.294 12.706L20.485 21.9z" />
    <glyph glyph-name="edit-circle-fill"
      unicode="&#xE113;"
      horiz-adv-x="24" d="M16.626 20.868L9.29 13.534L9.298 9.287L13.536 9.294L20.867 16.626A9.957 9.957 0 0 0 22 12C22 6.477 17.523 2 12 2S2 6.477 2 12S6.477 22 12 22C13.669 22 15.242 21.591 16.626 20.868zM20.486 21.899L21.899 20.485L12.707 11.293L11.295 11.29L11.293 12.707L20.485 21.9z" />
    <glyph glyph-name="edit-circle-line"
      unicode="&#xE114;"
      horiz-adv-x="24" d="M12.684 19.971A8 8 0 1 1 19.971 12.684A7.936 7.936 0 0 1 19.368 15.124L20.868 16.626A9.933 9.933 0 0 0 22 12C22 6.477 17.523 2 12 2S2 6.477 2 12S6.477 22 12 22A9.982000000000001 9.982000000000001 0 0 0 16.626 20.868L15.125 19.368A7.940999999999999 7.940999999999999 0 0 1 12.685 19.971zM20.485 21.9L21.9 20.485L12.708 11.293L11.296 11.29L11.294 12.707L20.485 21.9z" />
    <glyph glyph-name="edit-fill"
      unicode="&#xE115;"
      horiz-adv-x="24" d="M7.243 6H3V10.243L14.435 21.678A1 1 0 0 0 15.849 21.678L18.678 18.849A1 1 0 0 0 18.678 17.435L7.243 6zM3 4H21V2H3V4z" />
    <glyph glyph-name="edit-line"
      unicode="&#xE116;"
      horiz-adv-x="24" d="M6.414 8L16.556 18.142L15.142 19.556L5 9.414V8H6.414zM7.243 6H3V10.243L14.435 21.678A1 1 0 0 0 15.849 21.678L18.678 18.849A1 1 0 0 0 18.678 17.435L7.243 6zM3 4H21V2H3V4z" />
    <glyph glyph-name="eraser-fill"
      unicode="&#xE117;"
      horiz-adv-x="24" d="M14 5H21V3H12L8.002 2.998L1.515 9.485A1 1 0 0 0 1.515 10.899L12.12 21.506A1 1 0 0 0 13.535 21.506L21.313 13.728A1 1 0 0 0 21.313 12.314L14 5zM15.657 9.485L19.192 13.021L12.828 19.385L9.293 15.849L15.657 9.485z" />
    <glyph glyph-name="eraser-line"
      unicode="&#xE118;"
      horiz-adv-x="24" d="M8.586 15.142L3.636 10.192L8.83 4.998H10V5H11.172L14.95 8.778L8.586 15.142zM10 16.556L16.364 10.192L19.192 13.021L12.828 19.385L10 16.556zM14 5H21V3H12L8.002 2.998L1.515 9.485A1 1 0 0 0 1.515 10.899L12.12 21.506A1 1 0 0 0 13.535 21.506L21.313 13.728A1 1 0 0 0 21.313 12.314L14 5z" />
    <glyph glyph-name="focus-2-fill"
      unicode="&#xE119;"
      horiz-adv-x="24" d="M12 22C17.52 22 22 17.52 22 12S17.52 2 12 2S2 6.48 2 12S6.48 22 12 22zM12 4C16.427 4 20 7.573 20 12S16.427 20 12 20A7.990000000000001 7.990000000000001 0 0 1 4 12C4 7.573 7.573 4 12 4zM12 6C8.68 6 6 8.68 6 12S8.68 18 12 18S18 15.32 18 12S15.32 6 12 6zM12 14C10.9 14 10 13.1 10 12S10.9 10 12 10S14 10.9 14 12S13.1 14 12 14z" />
    <glyph glyph-name="focus-2-line"
      unicode="&#xE11A;"
      horiz-adv-x="24" d="M12 4A8 8 0 1 1 12 20A8 8 0 0 1 12 4zM12 2C6.477 2 2 6.477 2 12S6.477 22 12 22S22 17.523 22 12S17.523 2 12 2zM12 8A4 4 0 1 1 12 16A4 4 0 0 1 12 8zM12 6A6 6 0 1 0 12 18A6 6 0 0 0 12 6zM12 10A2 2 0 1 0 12 14A2 2 0 0 0 12 10z" />
    <glyph glyph-name="focus-fill"
      unicode="&#xE11B;"
      horiz-adv-x="24" d="M12 22C17.52 22 22 17.52 22 12S17.52 2 12 2S2 6.48 2 12S6.48 22 12 22zM12 14C10.9 14 10 13.1 10 12S10.9 10 12 10S14 10.9 14 12S13.1 14 12 14z" />
    <glyph glyph-name="focus-line"
      unicode="&#xE11C;"
      horiz-adv-x="24" d="M12 4A8 8 0 1 1 12 20A8 8 0 0 1 12 4zM12 2C6.477 2 2 6.477 2 12S6.477 22 12 22S22 17.523 22 12S17.523 2 12 2zM12 10A2 2 0 1 0 12 14A2 2 0 0 0 12 10z" />
    <glyph glyph-name="grid-fill"
      unicode="&#xE11D;"
      horiz-adv-x="24" d="M14 14V10H10V14H14zM16 14H21V10H16V14zM14 3H10V8H14V3zM16 3V8H21V4A1 1 0 0 0 20 3H16zM14 21V16H10V21H14zM16 21H20A1 1 0 0 0 21 20V16H16V21zM8 14V10H3V14H8zM8 3H4A1 1 0 0 0 3 4V8H8V3zM8 21V16H3V20A1 1 0 0 0 4 21H8z" />
    <glyph glyph-name="grid-line"
      unicode="&#xE11E;"
      horiz-adv-x="24" d="M14 14H10V10H14V14zM16 14V10H19V14H16zM14 5V8H10V5H14zM16 5H19V8H16V5zM14 19H10V16H14V19zM16 19V16H19V19H16zM8 14H5V10H8V14zM8 5V8H5V5H8zM8 19H5V16H8V19zM4 21H20A1 1 0 0 0 21 20V4A1 1 0 0 0 20 3H4A1 1 0 0 0 3 4V20A1 1 0 0 0 4 21z" />
    <glyph glyph-name="input-method-fill"
      unicode="&#xE11F;"
      horiz-adv-x="24" d="M4 21H20A1 1 0 0 0 21 20V4A1 1 0 0 0 20 3H4A1 1 0 0 0 3 4V20A1 1 0 0 0 4 21zM9.869 9H14.131L14.951 7H17.167L13 17H11L6.833 7H9.05L9.87 9zM10.689 11L12 14.2L13.311 11H10.69z" />
    <glyph glyph-name="input-method-line"
      unicode="&#xE120;"
      horiz-adv-x="24" d="M5 19V5H19V19H5zM4 21H20A1 1 0 0 0 21 20V4A1 1 0 0 0 20 3H4A1 1 0 0 0 3 4V20A1 1 0 0 0 4 21zM9.869 9L9.049 7H6.833L11 17H13L17.167 7H14.95L14.13 9H9.87zM10.689 11H13.311L12 14.2L10.689 11z" />
    <glyph glyph-name="layout-column-fill"
      unicode="&#xE121;"
      horiz-adv-x="24" d="M12 19V5H19V19H12zM4 21H20A1 1 0 0 0 21 20V4A1 1 0 0 0 20 3H4A1 1 0 0 0 3 4V20A1 1 0 0 0 4 21z" />
    <glyph glyph-name="layout-column-line"
      unicode="&#xE122;"
      horiz-adv-x="24" d="M11 19H5V5H11V19zM13 19V5H19V19H13zM4 21H20A1 1 0 0 0 21 20V4A1 1 0 0 0 20 3H4A1 1 0 0 0 3 4V20A1 1 0 0 0 4 21z" />
    <glyph glyph-name="layout-fill"
      unicode="&#xE123;"
      horiz-adv-x="24" d="M16 3V14H21V4A1 1 0 0 0 20 3H16zM14 3H4A1 1 0 0 0 3 4V14H14V3zM21 16H3V20A1 1 0 0 0 4 21H20A1 1 0 0 0 21 20V16z" />
    <glyph glyph-name="layout-line"
      unicode="&#xE124;"
      horiz-adv-x="24" d="M5 16H19V19H5V16zM14 5V14H5V5H14zM16 5H19V14H16V5zM4 21H20A1 1 0 0 0 21 20V4A1 1 0 0 0 20 3H4A1 1 0 0 0 3 4V20A1 1 0 0 0 4 21z" />
    <glyph glyph-name="layout-row-fill"
      unicode="&#xE125;"
      horiz-adv-x="24" d="M19 12H5V5H19V12zM4 21H20A1 1 0 0 0 21 20V4A1 1 0 0 0 20 3H4A1 1 0 0 0 3 4V20A1 1 0 0 0 4 21z" />
    <glyph glyph-name="layout-row-line"
      unicode="&#xE126;"
      horiz-adv-x="24" d="M19 13V19H5V13H19zM19 11H5V5H19V11zM4 21H20A1 1 0 0 0 21 20V4A1 1 0 0 0 20 3H4A1 1 0 0 0 3 4V20A1 1 0 0 0 4 21z" />
    <glyph glyph-name="magic-fill"
      unicode="&#xE127;"
      horiz-adv-x="24" d="M15.224 8.492L13.011 3.842A0.6 0.6 0 0 0 12.034 3.687L8.492 7.426A0.6 0.6 0 0 1 8.135 7.608L3.028 8.276A0.6 0.6 0 0 0 2.579 9.157L5.041 13.681A0.6 0.6 0 0 1 5.103 14.077L4.16 19.14A0.6 0.6 0 0 0 4.86 19.84L9.923 18.897A0.6 0.6 0 0 1 10.319 18.959L14.843 21.421A0.6 0.6 0 0 0 15.724 20.971L16.392 15.865A0.6 0.6 0 0 1 16.574 15.508L20.313 11.966A0.6 0.6 0 0 0 20.158 10.989L15.508 8.776A0.6 0.6 0 0 1 15.224 8.492zM16.021 6.565L17.435 7.979L21.678 3.737L20.263 2.322L16.021 6.565z" />
    <glyph glyph-name="magic-line"
      unicode="&#xE128;"
      horiz-adv-x="24" d="M15.199 14.055A2.6 2.6 0 0 0 14.409 15.606L14.006 18.689L11.276 17.203A2.6 2.6 0 0 0 9.556 16.93L6.5 17.5L7.07 14.444A2.6 2.6 0 0 0 6.797 12.724L5.311 9.994L8.394 9.591A2.6 2.6 0 0 0 9.944 8.801L12.082 6.544L13.418 9.351A2.6 2.6 0 0 0 14.648 10.582L17.456 11.918L15.199 14.055zM15.224 8.492L13.011 3.842A0.6 0.6 0 0 0 12.034 3.687L8.492 7.426A0.6 0.6 0 0 1 8.135 7.608L3.028 8.276A0.6 0.6 0 0 0 2.579 9.157L5.041 13.681A0.6 0.6 0 0 1 5.103 14.077L4.16 19.14A0.6 0.6 0 0 0 4.86 19.84L9.923 18.897A0.6 0.6 0 0 1 10.319 18.959L14.843 21.421A0.6 0.6 0 0 0 15.724 20.971L16.392 15.865A0.6 0.6 0 0 1 16.574 15.508L20.313 11.966A0.6 0.6 0 0 0 20.158 10.989L15.508 8.776A0.6 0.6 0 0 1 15.224 8.492zM16.021 6.565L17.435 7.979L21.678 3.737L20.263 2.322L16.021 6.565z" />
    <glyph glyph-name="mark-pen-fill"
      unicode="&#xE129;"
      horiz-adv-x="24" d="M15.95 21.607L21.607 15.95A1 1 0 0 0 21.607 14.536L13.828 6.757L11.708 6.05L10.293 4.636A1 1 0 0 0 8.879 4.636L4.636 8.879A1 1 0 0 0 4.636 10.293L6.05 11.707L6.757 13.828L14.536 21.607A1 1 0 0 0 15.95 21.607zM16.657 18.071L10.293 11.707L11.707 10.293L18.071 16.657L16.657 18.071zM4.282 7.111L7.111 4.282L5.697 2.868L1.454 4.282L4.282 7.111z" />
    <glyph glyph-name="mark-pen-line"
      unicode="&#xE12A;"
      horiz-adv-x="24" d="M15.243 19.485L8.505 12.748L7.798 10.627L6.758 9.586L9.586 6.757L10.626 7.798L12.748 8.505L19.485 15.243L15.243 19.485zM21.607 15.95A1 1 0 0 0 21.607 14.536L13.828 6.757L11.708 6.05L10.293 4.636A1 1 0 0 0 8.879 4.636L4.636 8.879A1 1 0 0 0 4.636 10.293L6.05 11.707L6.757 13.828L14.536 21.607A1 1 0 0 0 15.95 21.607L21.607 15.95zM15.243 16.657L16.657 15.243L11.707 10.293L10.293 11.707L15.243 16.657zM4.283 7.11L7.111 4.281L5.697 2.867L1.454 4.281L4.282 7.11z" />
    <glyph glyph-name="markup-fill"
      unicode="&#xE12B;"
      horiz-adv-x="24" d="M12 2C6.477 2 2 6.477 2 12S6.477 22 12 22S22 17.523 22 12S17.523 2 12 2zM17.051 5.796L16.189 9.243A1 1 0 0 1 15.219 10H8.781A1 1 0 0 1 7.811 9.243L6.949 5.796A7.967 7.967 0 0 1 12 4A7.967 7.967 0 0 1 17.051 5.796zM10 12H14V13.5L12.962 17.135A1 1 0 0 1 11.038 17.135L10 13.5V12z" />
    <glyph glyph-name="markup-line"
      unicode="&#xE12C;"
      horiz-adv-x="24" d="M10 13.5L11.038 17.135A1 1 0 0 0 12.962 17.135L14 13.5V12H14.72A1 1 0 0 0 15.69 11.243L17.051 5.796A8 8 0 1 1 6.949 5.796L8.311 11.243A1 1 0 0 0 9.28 12H10V13.5zM12 4A7.952000000000001 7.952000000000001 0 0 1 15.265 4.694L13.938 10H10.062L8.735 4.694A7.95 7.95 0 0 1 12 4zM12 2C6.477 2 2 6.477 2 12S6.477 22 12 22S22 17.523 22 12S17.523 2 12 2z" />
    <glyph glyph-name="paint-brush-fill"
      unicode="&#xE12D;"
      horiz-adv-x="24" d="M4 21H20A1 1 0 0 0 21 20V15A1 1 0 0 0 20 14H4A1 1 0 0 0 3 15V20A1 1 0 0 0 4 21zM6 12H12A1 1 0 0 0 13 11V8H14V2H10V8H11V10H5A1 1 0 0 0 4 11V13H6V12zM17.732 10.268L19.5 12.036L21.268 10.268A2.5 2.5 0 1 0 17.732 10.268z" />
    <glyph glyph-name="paint-brush-line"
      unicode="&#xE12E;"
      horiz-adv-x="24" d="M5 19V16H19V19H5zM4 21H20A1 1 0 0 0 21 20V15A1 1 0 0 0 20 14H4A1 1 0 0 0 3 15V20A1 1 0 0 0 4 21zM6 12H12A1 1 0 0 0 13 11V8H14V2H10V8H11V10H5A1 1 0 0 0 4 11V13H6V12zM17.732 10.268L19.5 12.036L21.268 10.268A2.5 2.5 0 1 0 17.732 10.268z" />
    <glyph glyph-name="paint-fill"
      unicode="&#xE12F;"
      horiz-adv-x="24" d="M19.228 5.268L20.996 7.036L22.763 5.268A2.5 2.5 0 1 0 19.228 5.268zM8.878 22.92L20.192 11.607A1 1 0 0 0 20.192 10.192L11.707 1.707A1 1 0 0 0 10.293 1.707L1.808 10.192A1 1 0 0 0 1.808 11.607L9.586 19.385L7.464 21.506L8.88 22.92zM11 17.97L3.929 10.9H18.07L11 17.97z" />
    <glyph glyph-name="paint-line"
      unicode="&#xE130;"
      horiz-adv-x="24" d="M19.228 5.268L20.996 7.036L22.763 5.268A2.5 2.5 0 1 0 19.228 5.268zM8.878 22.92L20.192 11.607A1 1 0 0 0 20.192 10.192L11.707 1.707A1 1 0 0 0 10.293 1.707L1.808 10.192A1 1 0 0 0 1.808 11.607L9.586 19.385L7.464 21.506L8.88 22.92zM11 17.97L3.929 10.9L11 3.827L18.071 10.898L11 17.971z" />
    <glyph glyph-name="palette-fill"
      unicode="&#xE131;"
      horiz-adv-x="24" d="M12 22C17.522 22 22 18.022 22 13.111A5.558 5.558 0 0 0 16.444 7.556H14.478C13.556 7.556 12.811 6.811 12.811 5.889C12.811 5.467 12.978 5.078 13.233 4.789C13.5 4.489 13.667 4.1 13.667 3.667C13.667 2.744 12.9 2 12 2C6.478 2 2 6.478 2 12S6.478 22 12 22zM7.5 12A1.5 1.5 0 1 1 7.5 15A1.5 1.5 0 0 1 7.5 12zM16.5 12A1.5 1.5 0 1 1 16.5 15A1.5 1.5 0 0 1 16.5 12zM12 15A1.5 1.5 0 1 1 12 18A1.5 1.5 0 0 1 12 15z" />
    <glyph glyph-name="palette-line"
      unicode="&#xE132;"
      horiz-adv-x="24" d="M12 22C17.522 22 22 18.022 22 13.111A5.558 5.558 0 0 0 16.444 7.556H14.478C13.556 7.556 12.811 6.811 12.811 5.889C12.811 5.467 12.978 5.078 13.233 4.789C13.5 4.489 13.667 4.1 13.667 3.667C13.667 2.744 12.9 2 12 2C6.478 2 2 6.478 2 12S6.478 22 12 22zM10.811 5.889A3.6640000000000006 3.6640000000000006 0 0 0 14.478 9.556H16.444A3.558 3.558 0 0 1 20 13.11C20 16.861 16.468 20 12 20A8 8 0 0 1 11.324 4.028A3.6479999999999997 3.6479999999999997 0 0 0 10.811 5.888zM7.5 12A1.5 1.5 0 1 0 7.5 15A1.5 1.5 0 0 0 7.5 12zM16.5 12A1.5 1.5 0 1 0 16.5 15A1.5 1.5 0 0 0 16.5 12zM12 15A1.5 1.5 0 1 0 12 18A1.5 1.5 0 0 0 12 15z" />
    <glyph glyph-name="pantone-fill"
      unicode="&#xE133;"
      horiz-adv-x="24" d="M4 5.078L2.65 5.623A1 1 0 0 0 2.098 6.925L4 11.633V5.078zM8.86 3H7A1 1 0 0 0 6 4V10.078L8.86 3zM6.022 18.032L15.294 21.778A1 1 0 0 0 16.595 21.226L22.215 7.318A1 1 0 0 0 21.662 6.016L12.39 2.27A1 1 0 0 0 11.088 2.823L5.47 16.73A1 1 0 0 0 6.023 18.031zM9 15A1 1 0 1 1 9 17A1 1 0 0 1 9 15z" />
    <glyph glyph-name="pantone-line"
      unicode="&#xE134;"
      horiz-adv-x="24" d="M5.764 16L5.469 16.73A1 1 0 0 0 6.022 18.032L15.294 21.778A1 1 0 0 0 16.595 21.226L22.215 7.318A1 1 0 0 0 21.662 6.016L12.39 2.27A1 1 0 0 0 11.088 2.823L11 3.04V3H7A1 1 0 0 0 6 4V4.27L2.65 5.623A1 1 0 0 0 2.098 6.925L5.764 16zM8 5H10.209L8 10.467V5zM6 11.244L4.327 7.103L6 6.392V11.244zM7.698 16.553L12.568 4.499L19.986 7.496L15.116 19.549L7.698 16.553zM10.676 14.52A1 1 0 1 0 9.927 16.375A1 1 0 0 0 10.677 14.52z" />
    <glyph glyph-name="pen-nib-fill"
      unicode="&#xE135;"
      horiz-adv-x="24" d="M4.929 2.515L10.775 8.361A2 2 0 1 1 9.361 9.775L3.515 3.929L2.455 4.989C5.282 8.289 6.343 11.943 7.757 18.071L14.121 18.778L19.778 13.121L19.071 6.757C12.943 5.343 9.289 4.282 5.99 1.454L4.929 2.514zM16.596 21.96L22.943 15.614A0.5 0.5 0 0 0 22.666 14.766L21.192 14.536L15.536 20.192L15.748 21.677A0.5 0.5 0 0 0 16.596 21.96z" />
    <glyph glyph-name="pen-nib-line"
      unicode="&#xE136;"
      horiz-adv-x="24" d="M16.596 22.96L22.943 16.614A0.5 0.5 0 0 0 22.666 15.766L21.192 15.536L15.536 21.192L15.748 22.677A0.5 0.5 0 0 0 16.596 22.96zM4.595 3.85C8.317 7.181 12.59 8.178 17.238 9.37L17.684 13.388L13.387 17.685L9.369 17.239C8.177 12.591 7.18 8.319 3.849 4.596L2.454 5.99C5.282 9.29 6.344 12.943 7.757 19.071L14.121 19.778L19.778 14.121L19.071 7.757C12.943 6.343 9.289 5.282 5.99 2.454L4.595 3.85zM9.879 9.88A2 2 0 1 0 12.707 12.708A2 2 0 0 0 9.88 9.88z" />
    <glyph glyph-name="pencil-fill"
      unicode="&#xE137;"
      horiz-adv-x="24" d="M12.9 17.142L17.142 12.899L7.242 3H3V7.243L12.9 17.143zM14.314 18.556L16.435 20.678A1 1 0 0 0 17.849 20.678L20.678 17.849A1 1 0 0 0 20.678 16.435L18.556 14.314L14.314 18.556z" />
    <glyph glyph-name="pencil-line"
      unicode="&#xE138;"
      horiz-adv-x="24" d="M15.728 14.314L14.314 15.728L5 6.414V5H6.414L15.728 14.314zM17.142 15.728L18.556 17.142L17.142 18.556L15.728 17.142L17.142 15.728zM7.242 3H3V7.243L16.435 20.678A1 1 0 0 0 17.849 20.678L20.678 17.849A1 1 0 0 0 20.678 16.435L7.243 3z" />
    <glyph glyph-name="pencil-ruler-2-fill"
      unicode="&#xE139;"
      horiz-adv-x="24" d="M5.636 11.293L7.464 9.464L8.88 10.88L7.05 12.707L8.464 14.121L10.293 12.293L11.707 13.707L9.88 15.536L11.294 16.95L13.12 15.12L14.535 16.535L12.706 18.363L15.535 21.191A1 1 0 0 0 16.949 21.191L21.191 16.949A1 1 0 0 0 21.191 15.535L8.464 2.808A1 1 0 0 0 7.05 2.808L2.808 7.05A1 1 0 0 0 2.808 8.464L5.636 11.293zM14.121 5.637L18.364 9.879L21 7.243V3H16.758L14.121 5.637zM5.636 14.122L2.807 16.95A1 1 0 0 0 2.807 18.365L5.636 21.193A1 1 0 0 0 7.05 21.193L9.88 18.365L5.636 14.122z" />
    <glyph glyph-name="pencil-ruler-2-line"
      unicode="&#xE13A;"
      horiz-adv-x="24" d="M7.05 9.879L4.93 7.757L7.758 4.929L19.071 16.243L16.243 19.07L14.12 16.95L15.535 15.536L14.12 14.12L12.706 15.535L11.292 14.12L12.706 12.706L11.292 11.292L9.878 12.706L8.463 11.292L9.878 9.878L8.463 8.463L7.05 9.88zM16.95 21.192L21.192 16.95A1 1 0 0 0 21.192 15.536L8.464 2.808A1 1 0 0 0 7.05 2.808L2.808 7.05A1 1 0 0 0 2.808 8.464L15.536 21.192A1 1 0 0 0 16.95 21.192zM14.12 5.637L15.535 7.051L17.777 4.808H19.191V6.222L16.949 8.465L18.363 9.879L21 7.243V3H16.758L14.121 5.637zM5.636 14.122L2.807 16.95A1 1 0 0 0 2.807 18.365L5.636 21.193A1 1 0 0 0 7.05 21.193L9.88 18.365L8.464 16.95L6.343 19.072L4.929 17.657L7.05 15.537L5.636 14.122z" />
    <glyph glyph-name="pencil-ruler-fill"
      unicode="&#xE13B;"
      horiz-adv-x="24" d="M5 6V4H9V6H5zM3 17L7 22L11 17V2H3V17zM21 16H19V14H21V12H18V10H21V8H19V6H21V3A1 1 0 0 0 20 2H14A1 1 0 0 0 13 3V19A1 1 0 0 0 14 20H20A1 1 0 0 0 21 19V16z" />
    <glyph glyph-name="pencil-ruler-line"
      unicode="&#xE13C;"
      horiz-adv-x="24" d="M5 16V4H9V16H5zM3 17L7 22L11 17V2H3V17zM19 8V10H16V12H19V14H17V16H19V18H15V4H19V6H17V8H19zM14 20H20A1 1 0 0 0 21 19V3A1 1 0 0 0 20 2H14A1 1 0 0 0 13 3V19A1 1 0 0 0 14 20z" />
    <glyph glyph-name="quill-pen-fill"
      unicode="&#xE13D;"
      horiz-adv-x="24" d="M21 22C6 22 4 8 3 2H4.998C5.664 5.333 7.331 7.166 10 7.5C14 8 17 11.5 18 14.5L16.5 15.5L17.5 16.5C18.5 17.5 19.504 19 21 22z" />
    <glyph glyph-name="quill-pen-line"
      unicode="&#xE13E;"
      horiz-adv-x="24" d="M6.94 9.964C6.707 9.34 6.51 8.764 6.334 8.181C7.294 8.878 8.435 9.32 9.752 9.485C12.265 9.799 14.498 11.458 15.628 13.543L14.172 14.998L15.585 16.413L16.585 17.414C17.015 17.844 17.5 18.638 18.013 19.782C12.42 18.915 8.995 15.49 6.939 9.964zM17 14.999L18 14C17 11 14 8 10 7.5C7.331 7.166 5.664 5.333 4.998 2H3C4 8 6 22 21 22C20 19.003 19.002 17.004 18.003 16.003L17 14.999z" />
    <glyph glyph-name="ruler-2-fill"
      unicode="&#xE13F;"
      horiz-adv-x="24" d="M15 3H13V6H11V3H9V5H7V3H4A1 1 0 0 0 3 4V7H5V9H3V11H6V13H3V15H5V17H3V20A1 1 0 0 0 4 21H10A1 1 0 0 0 11 20V11H20A1 1 0 0 0 21 10V4A1 1 0 0 0 20 3H17V5H15V3z" />
    <glyph glyph-name="ruler-2-line"
      unicode="&#xE140;"
      horiz-adv-x="24" d="M17 5H19V10H10V19H5V17H7V15H5V13H8V11H5V9H7V7H5V5H7V7H9V5H11V8H13V5H15V7H17V5zM12 12H20A1 1 0 0 0 21 11V4A1 1 0 0 0 20 3H4A1 1 0 0 0 3 4V20A1 1 0 0 0 4 21H11A1 1 0 0 0 12 20V12z" />
    <glyph glyph-name="ruler-fill"
      unicode="&#xE141;"
      horiz-adv-x="24" d="M4.929 10.793L7.05 8.672L8.464 10.086L6.344 12.207L8.464 14.328L11.293 11.5L12.707 12.914L9.88 15.743L12 17.864L14.121 15.743L15.536 17.157L13.414 19.278L16.243 22.107A1 1 0 0 0 17.657 22.107L22.607 17.157A1 1 0 0 0 22.607 15.743L7.757 0.893A1 1 0 0 0 6.343 0.893L1.393 5.843A1 1 0 0 0 1.393 7.257L4.929 10.793z" />
    <glyph glyph-name="ruler-line"
      unicode="&#xE142;"
      horiz-adv-x="24" d="M6.343 9.379L3.515 6.55L7.05 3.015L20.485 16.45L16.95 19.985L14.828 17.864L16.243 16.45L14.828 15.036L13.414 16.45L11.293 14.328L13.414 12.208L12 10.792L9.879 12.913L7.757 10.792L9.172 9.378L7.757 7.963L6.343 9.378zM17.657 22.107L22.607 17.157A1 1 0 0 0 22.607 15.743L7.757 0.893A1 1 0 0 0 6.343 0.893L1.393 5.843A1 1 0 0 0 1.393 7.257L16.243 22.107A1 1 0 0 0 17.657 22.107z" />
    <glyph glyph-name="scissors-2-fill"
      unicode="&#xE143;"
      horiz-adv-x="24" d="M12 9.879L9.683 7.562A4 4 0 1 0 7.562 9.683L9.88 12L4.21 17.667A2 2 0 0 0 4.21 20.496L4.918 21.203L12 14.12L19.081 21.202L19.789 20.495A2 2 0 0 0 19.789 17.666L14.12 12L16.437 9.683A4 4 0 1 0 14.316 7.562L12 9.88zM6 4A2 2 0 1 1 6 8A2 2 0 0 1 6 4zM18 4A2 2 0 1 1 18 8A2 2 0 0 1 18 4z" />
    <glyph glyph-name="scissors-2-line"
      unicode="&#xE144;"
      horiz-adv-x="24" d="M12 10.586L9.446 8.032A4 4 0 1 0 8.032 9.446L10.586 12L4.565 18.02A2 2 0 0 0 4.565 20.85L12 13.413L19.435 20.848A2 2 0 0 0 19.435 18.02L13.415 12L15.968 9.446A4 4 0 1 0 14.554 8.032L12 10.586zM6 4A2 2 0 1 1 6 8A2 2 0 0 1 6 4zM18 4A2 2 0 1 1 18 8A2 2 0 0 1 18 4z" />
    <glyph glyph-name="scissors-cut-fill"
      unicode="&#xE145;"
      horiz-adv-x="24" d="M9.879 12L7.562 14.317A4 4 0 1 0 9.683 16.438L12 14.12L18.374 20.495A2 2 0 0 0 21.203 20.495L21.91 19.788L9.683 7.562A4 4 0 1 0 7.562 9.683L9.88 12zM6 16A2 2 0 1 1 6 20A2 2 0 0 1 6 16zM6 4A2 2 0 1 1 6 8A2 2 0 0 1 6 4zM15.535 10.587L21.91 4.211L21.203 3.504A2 2 0 0 0 18.374 3.504L13.414 8.465L15.534 10.587zM16 13H18V11H16V13zM20 13H22V11H20V13zM6 13H8V11H6V13zM2 13H4V11H2V13z" />
    </font>
</defs>
</svg>
